RedHatText-Light.ufo
<glyph name="exclam" format="2">
  <advance width="206"/>
  <unicode hex="0021"/>
  <outline>
    <contour>
      <point x="82" y="199" type="line"/>
      <point x="124" y="199" type="line"/>
      <point x="130" y="710" type="line"/>
      <point x="76" y="710" type="line"/>
    </contour>
    <contour>
      <point x="103" y="-8" type="curve" smooth="yes"/>
      <point x="128" y="-8"/>
      <point x="149" y="12"/>
      <point x="149" y="39" type="curve" smooth="yes"/>
      <point x="149" y="64"/>
      <point x="128" y="85"/>
      <point x="103" y="85" type="curve" smooth="yes"/>
      <point x="78" y="85"/>
      <point x="57" y="64"/>
      <point x="57" y="39" type="curve" smooth="yes"/>
      <point x="57" y="12"/>
      <point x="78" y="-8"/>
    </contour>
  </outline>
</glyph>
<glyph name="ampersand" format="2">
  <advance width="662"/>
  <unicode hex="0026"/>
  <outline>
    <contour>
      <point x="262" y="-11" type="curve" smooth="yes"/>
      <point x="352" y="-11"/>
      <point x="431" y="26"/>
      <point x="490" y="95" type="curve"/>
      <point x="533" y="58"/>
      <point x="577" y="22"/>
      <point x="620" y="-11" type="curve"/>
      <point x="651" y="26" type="line"/>
      <point x="607" y="60"/>
      <point x="562" y="97"/>
      <point x="519" y="135" type="curve"/>
      <point x="558" y="195"/>
      <point x="589" y="270"/>
      <point x="605" y="360" type="curve"/>
      <point x="555" y="368" type="line"/>
      <point x="543" y="292"/>
      <point x="517" y="223"/>
      <point x="483" y="168" type="curve"/>
      <point x="398" y="244"/>
      <point x="324" y="321"/>
      <point x="272" y="379" type="curve"/>
      <point x="321" y="409" type="line" smooth="yes"/>
      <point x="400" y="455"/>
      <point x="438" y="505"/>
      <point x="438" y="573" type="curve" smooth="yes"/>
      <point x="438" y="651"/>
      <point x="382" y="711"/>
      <point x="292" y="711" type="curve" smooth="yes"/>
      <point x="198" y="711"/>
      <point x="133" y="639"/>
      <point x="133" y="550" type="curve" smooth="yes"/>
      <point x="133" y="498"/>
      <point x="154" y="447"/>
      <point x="199" y="391" type="curve"/>
      <point x="75" y="328"/>
      <point x="36" y="268"/>
      <point x="36" y="187" type="curve" smooth="yes"/>
      <point x="36" y="69"/>
      <point x="124" y="-11"/>
    </contour>
    <contour>
      <point x="242" y="413" type="line"/>
      <point x="202" y="463"/>
      <point x="183" y="507"/>
      <point x="183" y="551" type="curve" smooth="yes"/>
      <point x="183" y="618"/>
      <point x="227" y="666"/>
      <point x="290" y="666" type="curve" smooth="yes"/>
      <point x="347" y="666"/>
      <point x="388" y="624"/>
      <point x="388" y="572" type="curve" smooth="yes"/>
      <point x="388" y="525"/>
      <point x="364" y="483"/>
      <point x="305" y="449" type="curve" smooth="yes"/>
    </contour>
    <contour>
      <point x="263" y="35" type="curve" smooth="yes"/>
      <point x="158" y="35"/>
      <point x="88" y="95"/>
      <point x="88" y="187" type="curve" smooth="yes"/>
      <point x="88" y="249"/>
      <point x="112" y="295"/>
      <point x="227" y="356" type="curve"/>
      <point x="283" y="292"/>
      <point x="365" y="208"/>
      <point x="454" y="127" type="curve"/>
      <point x="405" y="68"/>
      <point x="337" y="35"/>
    </contour>
  </outline>
</glyph>
<glyph name="quotesingle" format="2">
  <advance width="192"/>
  <unicode hex="0027"/>
  <outline>
    <contour>
      <point x="78" y="554" type="line"/>
      <point x="114" y="554" type="line"/>
      <point x="123" y="750" type="line"/>
      <point x="69" y="750" type="line"/>
    </contour>
  </outline>
</glyph>
<glyph name="hyphen" format="2">
  <advance width="452"/>
  <unicode hex="002D"/>
  <outline>
    <contour>
      <point x="64" y="258" type="line"/>
      <point x="388" y="258" type="line"/>
      <point x="388" y="302" type="line"/>
      <point x="64" y="302" type="line"/>
    </contour>
  </outline>
</glyph>
<glyph name="slash" format="2">
  <advance width="448"/>
  <unicode hex="002F"/>
  <outline>
    <contour>
      <point x="-47" y="-209" type="line"/>
      <point x="5" y="-209" type="line"/>
      <point x="403" y="700" type="line"/>
      <point x="351" y="700" type="line"/>
    </contour>
  </outline>
</glyph>
<glyph name="zero" format="2">
  <advance width="652"/>
  <unicode hex="0030"/>
  <outline>
    <contour>
      <point x="326" y="-11" type="curve" smooth="yes"/>
      <point x="479" y="-11"/>
      <point x="591" y="134"/>
      <point x="591" y="350" type="curve" smooth="yes"/>
      <point x="591" y="566"/>
      <point x="479" y="711"/>
      <point x="326" y="711" type="curve" smooth="yes"/>
      <point x="173" y="711"/>
      <point x="61" y="566"/>
      <point x="61" y="350" type="curve" smooth="yes"/>
      <point x="61" y="134"/>
      <point x="173" y="-11"/>
    </contour>
    <contour>
      <point x="326" y="35" type="curve" smooth="yes"/>
      <point x="199" y="35"/>
      <point x="113" y="155"/>
      <point x="113" y="350" type="curve" smooth="yes"/>
      <point x="113" y="545"/>
      <point x="199" y="665"/>
      <point x="326" y="665" type="curve" smooth="yes"/>
      <point x="453" y="665"/>
      <point x="539" y="545"/>
      <point x="539" y="350" type="curve" smooth="yes"/>
      <point x="539" y="155"/>
      <point x="453" y="35"/>
    </contour>
  </outline>
</glyph>
<glyph name="nine" format="2">
  <advance width="611"/>
  <unicode hex="0039"/>
  <outline>
    <contour>
      <point x="283" y="711" type="curve" smooth="yes"/>
      <point x="150" y="711"/>
      <point x="52" y="615"/>
      <point x="52" y="482" type="curve" smooth="yes"/>
      <point x="52" y="355"/>
      <point x="150" y="262"/>
      <point x="286" y="262" type="curve" smooth="yes"/>
      <point x="364" y="262"/>
      <point x="442" y="301"/>
      <point x="497" y="368" type="curve"/>
      <point x="493" y="160"/>
      <point x="398" y="34"/>
      <point x="245" y="34" type="curve" smooth="yes"/>
      <point x="202" y="34"/>
      <point x="153" y="49"/>
      <point x="112" y="70" type="curve"/>
      <point x="90" y="28" type="line"/>
      <point x="134" y="3"/>
      <point x="188" y="-11"/>
      <point x="241" y="-11" type="curve" smooth="yes"/>
      <point x="427" y="-11"/>
      <point x="550" y="144"/>
      <point x="550" y="380" type="curve" smooth="yes"/>
      <point x="550" y="574"/>
      <point x="439" y="711"/>
    </contour>
    <contour>
      <point x="291" y="306" type="curve" smooth="yes"/>
      <point x="181" y="306"/>
      <point x="104" y="381"/>
      <point x="104" y="484" type="curve" smooth="yes"/>
      <point x="104" y="588"/>
      <point x="180" y="666"/>
      <point x="282" y="666" type="curve" smooth="yes"/>
      <point x="401" y="666"/>
      <point x="484" y="567"/>
      <point x="496" y="418" type="curve"/>
      <point x="443" y="349"/>
      <point x="367" y="306"/>
    </contour>
  </outline>
</glyph>
<glyph name="question" format="2">
  <advance width="505"/>
  <unicode hex="003F"/>
  <guideline x="219" y="201" angle="90.0" identifier="v1cGfuixOY"/>
  <outline>
    <contour>
      <point x="196" y="201" type="curve"/>
      <point x="242" y="201" type="line"/>
      <point x="237" y="261"/>
      <point x="251" y="306"/>
      <point x="303" y="344" type="curve" smooth="yes"/>
      <point x="338" y="370" type="line" smooth="yes"/>
      <point x="413" y="426"/>
      <point x="447" y="465"/>
      <point x="447" y="539" type="curve" smooth="yes"/>
      <point x="447" y="638"/>
      <point x="361" y="711"/>
      <point x="250" y="711" type="curve" smooth="yes"/>
      <point x="170" y="711"/>
      <point x="99" y="674"/>
      <point x="39" y="603" type="curve"/>
      <point x="77" y="568" type="line"/>
      <point x="128" y="631"/>
      <point x="183" y="663"/>
      <point x="248" y="663" type="curve" smooth="yes"/>
      <point x="331" y="663"/>
      <point x="397" y="609"/>
      <point x="397" y="539" type="curve" smooth="yes"/>
      <point x="397" y="484"/>
      <point x="371" y="452"/>
      <point x="315" y="410" type="curve" smooth="yes"/>
      <point x="276" y="381" type="line" smooth="yes"/>
      <point x="210" y="333"/>
      <point x="191" y="280"/>
    </contour>
    <contour>
      <point x="219" y="-8" type="curve" smooth="yes"/>
      <point x="242" y="-8"/>
      <point x="262" y="10"/>
      <point x="262" y="35" type="curve" smooth="yes"/>
      <point x="262" y="60"/>
      <point x="242" y="78"/>
      <point x="219" y="78" type="curve" smooth="yes"/>
      <point x="196" y="78"/>
      <point x="176" y="60"/>
      <point x="176" y="35" type="curve" smooth="yes"/>
      <point x="176" y="10"/>
      <point x="196" y="-8"/>
    </contour>
  </outline>
</glyph>
<glyph name="A" format="2">
  <advance width="639"/>
  <unicode hex="0041"/>
  <guideline x="411" y="717" angle="90.0" identifier="YDYe6DKRnZ"/>
  <anchor x="320" y="700" name="top"/>
  <anchor x="628" y="0" name="bottom"/>
  <outline>
    <contour>
      <point x="11" y="0" type="line"/>
      <point x="65" y="0" type="line"/>
      <point x="155" y="234" type="line"/>
      <point x="483" y="234" type="line"/>
      <point x="574" y="0" type="line"/>
      <point x="628" y="0" type="line"/>
      <point x="352" y="700" type="line"/>
      <point x="287" y="700" type="line"/>
    </contour>
    <contour>
      <point x="172" y="276" type="line"/>
      <point x="319" y="656" type="line"/>
      <point x="467" y="276" type="line"/>
    </contour>
  </outline>
</glyph>
<glyph name="C" format="2">
  <advance width="728"/>
  <unicode hex="0043"/>
  <anchor x="397" y="700" name="top"/>
  <anchor x="401" y="0" name="bottom"/>
  <outline>
    <contour>
      <point x="406" y="-11" type="curve" smooth="yes"/>
      <point x="510" y="-11"/>
      <point x="603" y="27"/>
      <point x="670" y="98" type="curve"/>
      <point x="636" y="137" type="line"/>
      <point x="583" y="75"/>
      <point x="496" y="37"/>
      <point x="406" y="37" type="curve" smooth="yes"/>
      <point x="239" y="37"/>
      <point x="112" y="174"/>
      <point x="112" y="350" type="curve" smooth="yes"/>
      <point x="112" y="526"/>
      <point x="239" y="663"/>
      <point x="406" y="663" type="curve" smooth="yes"/>
      <point x="496" y="663"/>
      <point x="583" y="625"/>
      <point x="636" y="563" type="curve"/>
      <point x="670" y="602" type="line"/>
      <point x="603" y="673"/>
      <point x="510" y="711"/>
      <point x="406" y="711" type="curve" smooth="yes"/>
      <point x="212" y="710"/>
      <point x="60" y="552"/>
      <point x="60" y="350" type="curve" smooth="yes"/>
      <point x="60" y="148"/>
      <point x="212" y="-11"/>
    </contour>
  </outline>
</glyph>
<glyph name="F" format="2">
  <advance width="596"/>
  <unicode hex="0046"/>
  <guideline x="348" y="490" angle="90.0" identifier="btDTIWi0Rf"/>
  <outline>
    <contour>
      <point x="92" y="0" type="line"/>
      <point x="144" y="0" type="line"/>
      <point x="144" y="325" type="line"/>
      <point x="424" y="325" type="line"/>
      <point x="424" y="372" type="line"/>
      <point x="144" y="372" type="line"/>
      <point x="144" y="653" type="line"/>
      <point x="555" y="653" type="line"/>
      <point x="555" y="700" type="line"/>
      <point x="92" y="700" type="line"/>
    </contour>
  </outline>
</glyph>
<glyph name="G" format="2">
  <advance width="797"/>
  <unicode hex="0047"/>
  <anchor x="399" y="700" name="top"/>
  <anchor x="404" y="0" name="bottom"/>
  <outline>
    <contour>
      <point x="406" y="-11" type="curve" smooth="yes"/>
      <point x="598" y="-11"/>
      <point x="739" y="140"/>
      <point x="739" y="330" type="curve" smooth="yes"/>
      <point x="739" y="356" type="line"/>
      <point x="437" y="356" type="line"/>
      <point x="437" y="309" type="line"/>
      <point x="688" y="309" type="line"/>
      <point x="679" y="154"/>
      <point x="563" y="37"/>
      <point x="406" y="37" type="curve" smooth="yes"/>
      <point x="239" y="37"/>
      <point x="112" y="174"/>
      <point x="112" y="350" type="curve" smooth="yes"/>
      <point x="112" y="526"/>
      <point x="239" y="663"/>
      <point x="406" y="663" type="curve" smooth="yes"/>
      <point x="498" y="663"/>
      <point x="590" y="626"/>
      <point x="644" y="563" type="curve"/>
      <point x="678" y="602" type="line"/>
      <point x="610" y="674"/>
      <point x="512" y="711"/>
      <point x="406" y="711" type="curve" smooth="yes"/>
      <point x="212" y="711"/>
      <point x="60" y="552"/>
      <point x="60" y="350" type="curve" smooth="yes"/>
      <point x="60" y="148"/>
      <point x="212" y="-11"/>
    </contour>
  </outline>
</glyph>
<glyph name="H" format="2">
  <advance width="721"/>
  <unicode hex="0048"/>
  <anchor x="361" y="700" name="top"/>
  <outline>
    <contour>
      <point x="92" y="0" type="line"/>
      <point x="144" y="0" type="line"/>
      <point x="144" y="329" type="line"/>
      <point x="577" y="329" type="line"/>
      <point x="577" y="0" type="line"/>
      <point x="629" y="0" type="line"/>
      <point x="629" y="700" type="line"/>
      <point x="577" y="700" type="line"/>
      <point x="577" y="376" type="line"/>
      <point x="144" y="376" type="line"/>
      <point x="144" y="700" type="line"/>
      <point x="92" y="700" type="line"/>
    </contour>
  </outline>
</glyph>
<glyph name="J" format="2">
  <advance width="582"/>
  <unicode hex="004A"/>
  <anchor x="476" y="700" name="top"/>
  <outline>
    <contour>
      <point x="254" y="-11" type="curve" smooth="yes"/>
      <point x="408" y="-11"/>
      <point x="504" y="93"/>
      <point x="504" y="261" type="curve" smooth="yes"/>
      <point x="504" y="700" type="line"/>
      <point x="452" y="700" type="line"/>
      <point x="452" y="261" type="line" smooth="yes"/>
      <point x="452" y="124"/>
      <point x="375" y="37"/>
      <point x="255" y="37" type="curve" smooth="yes"/>
      <point x="163" y="37"/>
      <point x="98" y="87"/>
      <point x="62" y="179" type="curve"/>
      <point x="16" y="158" type="line"/>
      <point x="55" y="52"/>
      <point x="143" y="-11"/>
    </contour>
  </outline>
</glyph>
<glyph name="M" format="2">
  <advance width="843"/>
  <unicode hex="004D"/>
  <outline>
    <contour>
      <point x="92" y="0" type="line"/>
      <point x="141" y="0" type="line"/>
      <point x="141" y="653" type="line"/>
      <point x="422" y="50" type="line"/>
      <point x="702" y="653" type="line"/>
      <point x="702" y="0" type="line"/>
      <point x="751" y="0" type="line"/>
      <point x="751" y="700" type="line"/>
      <point x="673" y="700" type="line"/>
      <point x="422" y="165" type="line"/>
      <point x="170" y="700" type="line"/>
      <point x="92" y="700" type="line"/>
    </contour>
  </outline>
</glyph>
<glyph name="P" format="2">
  <advance width="639"/>
  <unicode hex="0050"/>
  <outline>
    <contour>
      <point x="92" y="0" type="line"/>
      <point x="144" y="0" type="line"/>
      <point x="144" y="298" type="line"/>
      <point x="367" y="298" type="line" smooth="yes"/>
      <point x="501" y="298"/>
      <point x="584" y="378"/>
      <point x="584" y="499" type="curve" smooth="yes"/>
      <point x="584" y="620"/>
      <point x="501" y="700"/>
      <point x="367" y="700" type="curve" smooth="yes"/>
      <point x="92" y="700" type="line"/>
    </contour>
    <contour>
      <point x="144" y="345" type="line"/>
      <point x="144" y="653" type="line"/>
      <point x="364" y="653" type="line" smooth="yes"/>
      <point x="471" y="653"/>
      <point x="532" y="592"/>
      <point x="532" y="499" type="curve" smooth="yes"/>
      <point x="532" y="406"/>
      <point x="471" y="345"/>
      <point x="364" y="345" type="curve" smooth="yes"/>
    </contour>
  </outline>
</glyph>
<glyph name="R" format="2">
  <advance width="632"/>
  <unicode hex="0052"/>
  <anchor x="309" y="700" name="top"/>
  <anchor x="309" y="0" name="bottom"/>
  <outline>
    <contour>
      <point x="92" y="0" type="line"/>
      <point x="144" y="0" type="line"/>
      <point x="144" y="308" type="line"/>
      <point x="380" y="308" type="line"/>
      <point x="524" y="0" type="line"/>
      <point x="581" y="0" type="line"/>
      <point x="434" y="316" type="line"/>
      <point x="528" y="339"/>
      <point x="582" y="412"/>
      <point x="582" y="503" type="curve" smooth="yes"/>
      <point x="582" y="615"/>
      <point x="504" y="700"/>
      <point x="365" y="700" type="curve" smooth="yes"/>
      <point x="92" y="700" type="line"/>
    </contour>
    <contour>
      <point x="144" y="355" type="line"/>
      <point x="144" y="653" type="line"/>
      <point x="362" y="653" type="line" smooth="yes"/>
      <point x="471" y="653"/>
      <point x="530" y="588"/>
      <point x="530" y="503" type="curve" smooth="yes"/>
      <point x="530" y="419"/>
      <point x="471" y="355"/>
      <point x="362" y="355" type="curve" smooth="yes"/>
    </contour>
  </outline>
</glyph>
<glyph name="V" format="2">
  <advance width="639"/>
  <unicode hex="0056"/>
  <outline>
    <contour>
      <point x="287" y="0" type="line"/>
      <point x="352" y="0" type="line"/>
      <point x="628" y="700" type="line"/>
      <point x="575" y="700" type="line"/>
      <point x="320" y="45" type="line"/>
      <point x="65" y="700" type="line"/>
      <point x="11" y="700" type="line"/>
    </contour>
  </outline>
</glyph>
<glyph name="X" format="2">
  <advance width="627"/>
  <unicode hex="0058"/>
  <outline>
    <contour>
      <point x="11" y="0" type="line"/>
      <point x="73" y="0" type="line"/>
      <point x="312" y="323" type="line"/>
      <point x="553" y="0" type="line"/>
      <point x="616" y="0" type="line"/>
      <point x="344" y="364" type="line"/>
      <point x="595" y="700" type="line"/>
      <point x="533" y="700" type="line"/>
      <point x="313" y="404" type="line"/>
      <point x="92" y="700" type="line"/>
      <point x="30" y="700" type="line"/>
      <point x="283" y="363" type="line"/>
    </contour>
  </outline>
</glyph>
<glyph name="Z" format="2">
  <advance width="600"/>
  <unicode hex="005A"/>
  <anchor x="305" y="700" name="top"/>
  <outline>
    <contour>
      <point x="39" y="0" type="line"/>
      <point x="565" y="0" type="line"/>
      <point x="565" y="47" type="line"/>
      <point x="106" y="47" type="line"/>
      <point x="555" y="661" type="line"/>
      <point x="555" y="700" type="line"/>
      <point x="42" y="700" type="line"/>
      <point x="42" y="653" type="line"/>
      <point x="488" y="653" type="line"/>
      <point x="39" y="39" type="line"/>
    </contour>
  </outline>
</glyph>
<glyph name="bracketleft" format="2">
  <advance width="345"/>
  <unicode hex="005B"/>
  <outline>
    <contour>
      <point x="69" y="-215" type="line"/>
      <point x="294" y="-215" type="line"/>
      <point x="294" y="-172" type="line"/>
      <point x="119" y="-172" type="line"/>
      <point x="119" y="657" type="line"/>
      <point x="294" y="657" type="line" smooth="yes"/>
      <point x="294" y="700" type="line"/>
      <point x="69" y="700" type="line"/>
    </contour>
  </outline>
</glyph>
<glyph name="asciicircum" format="2">
  <advance width="600"/>
  <unicode hex="005E"/>
  <outline>
    <contour>
      <point x="99" y="350" type="line"/>
      <point x="150" y="350" type="line"/>
      <point x="300" y="646" type="line"/>
      <point x="450" y="350" type="line"/>
      <point x="501" y="350" type="line"/>
      <point x="323" y="700" type="line"/>
      <point x="277" y="700" type="line"/>
    </contour>
  </outline>
</glyph>
<glyph name="underscore" format="2">
  <advance width="453"/>
  <unicode hex="005F"/>
  <outline>
    <contour>
      <point x="-1" y="-124" type="line"/>
      <point x="454" y="-124" type="line"/>
      <point x="454" y="-80" type="line"/>
      <point x="-1" y="-80" type="line"/>
    </contour>
  </outline>
</glyph>
<glyph name="grave" format="2">
  <advance width="600"/>
  <unicode hex="0060"/>
  <outline>
    <contour>
      <point x="289" y="579" type="line"/>
      <point x="339" y="579" type="line"/>
      <point x="234" y="695" type="line"/>
      <point x="157" y="695" type="line"/>
    </contour>
  </outline>
</glyph>
<glyph name="a" format="2">
  <advance width="512"/>
  <unicode hex="0061"/>
  <note>
Version created Mon Aug  6 16:22:34 2018
</note>
  <anchor x="249" y="481" name="top"/>
  <anchor x="435" y="0" name="bottom"/>
  <outline>
    <contour>
      <point x="228" y="-10" type="curve" smooth="yes"/>
      <point x="291" y="-10"/>
      <point x="344" y="15"/>
      <point x="386" y="59" type="curve"/>
      <point x="386" y="0" type="line"/>
      <point x="435" y="0" type="line"/>
      <point x="435" y="323" type="line" smooth="yes"/>
      <point x="435" y="432"/>
      <point x="369" y="489"/>
      <point x="256" y="489" type="curve" smooth="yes"/>
      <point x="201" y="489"/>
      <point x="148" y="475"/>
      <point x="86" y="444" type="curve"/>
      <point x="106" y="403" type="line"/>
      <point x="162" y="433"/>
      <point x="207" y="447"/>
      <point x="254" y="447" type="curve" smooth="yes"/>
      <point x="339" y="447"/>
      <point x="386" y="403"/>
      <point x="386" y="314" type="curve" smooth="yes"/>
      <point x="386" y="239" type="line"/>
      <point x="344" y="268"/>
      <point x="291" y="282"/>
      <point x="230" y="282" type="curve" smooth="yes"/>
      <point x="129" y="282"/>
      <point x="52" y="227"/>
      <point x="52" y="138" type="curve" smooth="yes"/>
      <point x="52" y="48"/>
      <point x="127" y="-10"/>
    </contour>
    <contour>
      <point x="101" y="139" type="curve" smooth="yes"/>
      <point x="101" y="202"/>
      <point x="158" y="240"/>
      <point x="235" y="240" type="curve" smooth="yes"/>
      <point x="297" y="240"/>
      <point x="343" y="227"/>
      <point x="386" y="198" type="curve"/>
      <point x="386" y="98" type="line"/>
      <point x="345" y="55"/>
      <point x="297" y="32"/>
      <point x="234" y="32" type="curve" smooth="yes"/>
      <point x="157" y="32"/>
      <point x="101" y="74"/>
    </contour>
  </outline>
</glyph>
<glyph name="b" format="2">
  <advance width="567"/>
  <unicode hex="0062"/>
  <guideline x="278" y="324" angle="90.0" identifier="qYah58DcO3"/>
  <outline>
    <contour>
      <point x="78" y="0" type="line"/>
      <point x="127" y="0" type="line"/>
      <point x="127" y="63" type="line"/>
      <point x="168" y="15"/>
      <point x="224" y="-8"/>
      <point x="284" y="-8" type="curve" smooth="yes"/>
      <point x="415" y="-8"/>
      <point x="511" y="103"/>
      <point x="511" y="240" type="curve" smooth="yes"/>
      <point x="511" y="378"/>
      <point x="414" y="487"/>
      <point x="286" y="487" type="curve" smooth="yes"/>
      <point x="223" y="487"/>
      <point x="168" y="464"/>
      <point x="128" y="414" type="curve"/>
      <point x="128" y="737" type="line"/>
      <point x="78" y="725" type="line"/>
    </contour>
    <contour>
      <point x="278" y="38" type="curve" smooth="yes"/>
      <point x="215" y="38"/>
      <point x="160" y="67"/>
      <point x="128" y="112" type="curve"/>
      <point x="128" y="368" type="line"/>
      <point x="160" y="413"/>
      <point x="214" y="441"/>
      <point x="278" y="441" type="curve" smooth="yes"/>
      <point x="381" y="441"/>
      <point x="461" y="356"/>
      <point x="461" y="239" type="curve" smooth="yes"/>
      <point x="461" y="123"/>
      <point x="383" y="38"/>
    </contour>
  </outline>
</glyph>
<glyph name="d" format="2">
  <advance width="567"/>
  <unicode hex="0064"/>
  <guideline x="433" y="320" angle="90.0" identifier="uMzdjQkDXA"/>
  <outline>
    <contour>
      <point x="281" y="-8" type="curve" smooth="yes"/>
      <point x="344" y="-8"/>
      <point x="399" y="15"/>
      <point x="439" y="65" type="curve"/>
      <point x="439" y="0" type="line"/>
      <point x="489" y="0" type="line"/>
      <point x="489" y="737" type="line"/>
      <point x="439" y="725" type="line"/>
      <point x="439" y="417" type="line"/>
      <point x="398" y="464"/>
      <point x="342" y="487"/>
      <point x="283" y="487" type="curve" smooth="yes"/>
      <point x="152" y="487"/>
      <point x="56" y="376"/>
      <point x="56" y="239" type="curve" smooth="yes"/>
      <point x="56" y="101"/>
      <point x="153" y="-8"/>
    </contour>
    <contour>
      <point x="289" y="38" type="curve" smooth="yes"/>
      <point x="186" y="38"/>
      <point x="106" y="123"/>
      <point x="106" y="240" type="curve" smooth="yes"/>
      <point x="106" y="356"/>
      <point x="184" y="441"/>
      <point x="289" y="441" type="curve" smooth="yes"/>
      <point x="352" y="441"/>
      <point x="407" y="412"/>
      <point x="439" y="367" type="curve"/>
      <point x="439" y="111" type="line"/>
      <point x="407" y="66"/>
      <point x="353" y="38"/>
    </contour>
  </outline>
</glyph>
<glyph name="e" format="2">
  <advance width="548"/>
  <unicode hex="0065"/>
  <anchor x="277" y="481" name="top"/>
  <anchor x="356" y="0" name="bottom"/>
  <outline>
    <contour>
      <point x="290" y="-10" type="curve" smooth="yes"/>
      <point x="355" y="-10"/>
      <point x="411" y="11"/>
      <point x="464" y="52" type="curve"/>
      <point x="434" y="89" type="line"/>
      <point x="399" y="57"/>
      <point x="345" y="36"/>
      <point x="292" y="36" type="curve" smooth="yes"/>
      <point x="189" y="36"/>
      <point x="110" y="118"/>
      <point x="106" y="231" type="curve"/>
      <point x="495" y="231" type="line"/>
      <point x="495" y="250" type="line" smooth="yes"/>
      <point x="495" y="385"/>
      <point x="400" y="489"/>
      <point x="278" y="489" type="curve" smooth="yes"/>
      <point x="156" y="489"/>
      <point x="56" y="381"/>
      <point x="56" y="240" type="curve" smooth="yes"/>
      <point x="56" y="98"/>
      <point x="158" y="-10"/>
    </contour>
    <contour>
      <point x="108" y="272" type="line"/>
      <point x="121" y="372"/>
      <point x="192" y="443"/>
      <point x="278" y="443" type="curve" smooth="yes"/>
      <point x="366" y="443"/>
      <point x="435" y="370"/>
      <point x="444" y="272" type="curve"/>
    </contour>
  </outline>
</glyph>
<glyph name="f" format="2">
  <advance width="346"/>
  <unicode hex="0066"/>
  <outline>
    <contour>
      <point x="136" y="0" type="line"/>
      <point x="186" y="0" type="line"/>
      <point x="186" y="438" type="line"/>
      <point x="328" y="438" type="line"/>
      <point x="328" y="481" type="line"/>
      <point x="186" y="481" type="line"/>
      <point x="186" y="597" type="line" smooth="yes"/>
      <point x="186" y="662"/>
      <point x="212" y="691"/>
      <point x="269" y="691" type="curve" smooth="yes"/>
      <point x="290" y="691"/>
      <point x="305" y="688"/>
      <point x="328" y="680" type="curve"/>
      <point x="328" y="728" type="line"/>
      <point x="309" y="735"/>
      <point x="291" y="737"/>
      <point x="267" y="737" type="curve" smooth="yes"/>
      <point x="182" y="737"/>
      <point x="136" y="686"/>
      <point x="136" y="598" type="curve" smooth="yes"/>
      <point x="136" y="481" type="line"/>
      <point x="27" y="481" type="line"/>
      <point x="27" y="438" type="line"/>
      <point x="136" y="438" type="line"/>
    </contour>
  </outline>
</glyph>
<glyph name="g" format="2">
  <advance width="566"/>
  <unicode hex="0067"/>
  <anchor x="286" y="494" name="top"/>
  <outline>
    <contour>
      <point x="300" y="-219" type="curve" smooth="yes"/>
      <point x="420" y="-219"/>
      <point x="488" y="-156"/>
      <point x="488" y="-39" type="curve" smooth="yes"/>
      <point x="488" y="481" type="line"/>
      <point x="439" y="481" type="line"/>
      <point x="439" y="417" type="line"/>
      <point x="398" y="464"/>
      <point x="342" y="487"/>
      <point x="283" y="487" type="curve"/>
      <point x="152" y="487"/>
      <point x="56" y="376"/>
      <point x="56" y="239" type="curve" smooth="yes"/>
      <point x="56" y="101"/>
      <point x="153" y="-8"/>
      <point x="281" y="-8" type="curve"/>
      <point x="343" y="-8"/>
      <point x="398" y="15"/>
      <point x="438" y="63" type="curve"/>
      <point x="438" y="-41" type="line" smooth="yes"/>
      <point x="438" y="-128"/>
      <point x="388" y="-173"/>
      <point x="297" y="-173" type="curve" smooth="yes"/>
      <point x="245" y="-173"/>
      <point x="199" y="-158"/>
      <point x="142" y="-127" type="curve"/>
      <point x="116" y="-167" type="line"/>
      <point x="168" y="-199"/>
      <point x="235" y="-219"/>
    </contour>
    <contour>
      <point x="289" y="38" type="curve"/>
      <point x="186" y="38"/>
      <point x="106" y="123"/>
      <point x="106" y="240" type="curve" smooth="yes"/>
      <point x="106" y="356"/>
      <point x="184" y="441"/>
      <point x="289" y="441" type="curve"/>
      <point x="352" y="441"/>
      <point x="406" y="412"/>
      <point x="438" y="369" type="curve"/>
      <point x="438" y="109" type="line"/>
      <point x="406" y="65"/>
      <point x="353" y="38"/>
    </contour>
  </outline>
</glyph>
<glyph name="h" format="2">
  <advance width="535"/>
  <unicode hex="0068"/>
  <anchor x="101" y="700" name="top"/>
  <outline>
    <contour>
      <point x="78" y="0" type="line"/>
      <point x="128" y="0" type="line"/>
      <point x="128" y="361" type="line"/>
      <point x="159" y="417"/>
      <point x="209" y="445"/>
      <point x="267" y="445" type="curve" smooth="yes"/>
      <point x="355" y="445"/>
      <point x="409" y="386"/>
      <point x="409" y="293" type="curve" smooth="yes"/>
      <point x="409" y="0" type="line"/>
      <point x="459" y="0" type="line"/>
      <point x="459" y="307" type="line" smooth="yes"/>
      <point x="459" y="415"/>
      <point x="387" y="489"/>
      <point x="281" y="489" type="curve" smooth="yes"/>
      <point x="214" y="489"/>
      <point x="164" y="459"/>
      <point x="128" y="404" type="curve"/>
      <point x="128" y="737" type="line"/>
      <point x="78" y="725" type="line"/>
    </contour>
  </outline>
</glyph>
<glyph name="i" format="2">
  <advance width="206"/>
  <unicode hex="0069"/>
  <anchor x="103" y="481" name="top"/>
  <anchor x="128" y="0" name="bottom"/>
  <outline>
    <contour>
      <point x="78" y="0" type="line"/>
      <point x="128" y="0" type="line"/>
      <point x="128" y="481" type="line"/>
      <point x="78" y="481" type="line"/>
    </contour>
    <contour>
      <point x="103" y="608" type="curve" smooth="yes"/>
      <point x="128" y="608"/>
      <point x="149" y="629"/>
      <point x="149" y="654" type="curve" smooth="yes"/>
      <point x="149" y="679"/>
      <point x="128" y="700"/>
      <point x="103" y="700" type="curve" smooth="yes"/>
      <point x="78" y="700"/>
      <point x="57" y="679"/>
      <point x="57" y="654" type="curve" smooth="yes"/>
      <point x="57" y="629"/>
      <point x="78" y="608"/>
    </contour>
  </outline>
</glyph>
<glyph name="l" format="2">
  <advance width="206"/>
  <unicode hex="006C"/>
  <anchor x="103" y="700" name="top"/>
  <anchor x="103" y="0" name="bottom"/>
  <outline>
    <contour>
      <point x="78" y="0" type="line"/>
      <point x="128" y="0" type="line"/>
      <point x="128" y="737" type="line"/>
      <point x="78" y="725" type="line"/>
    </contour>
  </outline>
</glyph>
<glyph name="m" format="2">
  <advance width="828"/>
  <unicode hex="006D"/>
  <outline>
    <contour>
      <point x="78" y="0" type="line"/>
      <point x="128" y="0" type="line"/>
      <point x="128" y="365" type="line"/>
      <point x="158" y="418"/>
      <point x="203" y="445"/>
      <point x="258" y="445" type="curve" smooth="yes"/>
      <point x="340" y="445"/>
      <point x="390" y="386"/>
      <point x="390" y="293" type="curve" smooth="yes"/>
      <point x="390" y="0" type="line"/>
      <point x="440" y="0" type="line"/>
      <point x="440" y="307" type="line" smooth="yes"/>
      <point x="440" y="324"/>
      <point x="438" y="341"/>
      <point x="435" y="357" type="curve"/>
      <point x="464" y="412"/>
      <point x="510" y="445"/>
      <point x="570" y="445" type="curve" smooth="yes"/>
      <point x="653" y="445"/>
      <point x="702" y="386"/>
      <point x="702" y="293" type="curve" smooth="yes"/>
      <point x="702" y="0" type="line"/>
      <point x="752" y="0" type="line"/>
      <point x="752" y="307" type="line" smooth="yes"/>
      <point x="752" y="415"/>
      <point x="683" y="489"/>
      <point x="584" y="489" type="curve" smooth="yes"/>
      <point x="513" y="489"/>
      <point x="459" y="457"/>
      <point x="422" y="394" type="curve"/>
      <point x="394" y="453"/>
      <point x="339" y="489"/>
      <point x="271" y="489" type="curve" smooth="yes"/>
      <point x="209" y="489"/>
      <point x="163" y="460"/>
      <point x="128" y="408" type="curve"/>
      <point x="128" y="481" type="line"/>
      <point x="78" y="481" type="line"/>
    </contour>
  </outline>
</glyph>
<glyph name="n" format="2">
  <advance width="535"/>
  <unicode hex="006E"/>
  <anchor x="266" y="481" name="top"/>
  <anchor x="266" y="0" name="bottom"/>
  <outline>
    <contour>
      <point x="78" y="0" type="line"/>
      <point x="128" y="0" type="line"/>
      <point x="128" y="361" type="line"/>
      <point x="159" y="417"/>
      <point x="209" y="445"/>
      <point x="267" y="445" type="curve" smooth="yes"/>
      <point x="355" y="445"/>
      <point x="409" y="386"/>
      <point x="409" y="293" type="curve" smooth="yes"/>
      <point x="409" y="0" type="line"/>
      <point x="459" y="0" type="line"/>
      <point x="459" y="307" type="line" smooth="yes"/>
      <point x="459" y="415"/>
      <point x="387" y="489"/>
      <point x="281" y="489" type="curve" smooth="yes"/>
      <point x="214" y="489"/>
      <point x="164" y="459"/>
      <point x="128" y="404" type="curve"/>
      <point x="128" y="481" type="line"/>
      <point x="78" y="481" type="line"/>
    </contour>
  </outline>
</glyph>
<glyph name="p" format="2">
  <advance width="567"/>
  <unicode hex="0070"/>
  <outline>
    <contour>
      <point x="78" y="-209" type="line"/>
      <point x="128" y="-209" type="line"/>
      <point x="128" y="62" type="line"/>
      <point x="169" y="15"/>
      <point x="225" y="-8"/>
      <point x="284" y="-8" type="curve" smooth="yes"/>
      <point x="415" y="-8"/>
      <point x="511" y="103"/>
      <point x="511" y="240" type="curve" smooth="yes"/>
      <point x="511" y="378"/>
      <point x="414" y="487"/>
      <point x="286" y="487" type="curve" smooth="yes"/>
      <point x="223" y="487"/>
      <point x="167" y="463"/>
      <point x="127" y="413" type="curve"/>
      <point x="127" y="481" type="line"/>
      <point x="78" y="481" type="line"/>
    </contour>
    <contour>
      <point x="278" y="38" type="curve" smooth="yes"/>
      <point x="215" y="38"/>
      <point x="160" y="67"/>
      <point x="128" y="112" type="curve"/>
      <point x="128" y="368" type="line"/>
      <point x="160" y="413"/>
      <point x="214" y="441"/>
      <point x="278" y="441" type="curve" smooth="yes"/>
      <point x="381" y="441"/>
      <point x="461" y="356"/>
      <point x="461" y="239" type="curve" smooth="yes"/>
      <point x="461" y="123"/>
      <point x="383" y="38"/>
    </contour>
  </outline>
</glyph>
<glyph name="r" format="2">
  <advance width="328"/>
  <unicode hex="0072"/>
  <guideline x="103" identifier="htCJGl3CO7"/>
  <anchor x="176" y="481" name="top"/>
  <anchor x="103" y="0" name="bottom"/>
  <outline>
    <contour>
      <point x="78" y="0" type="line"/>
      <point x="128" y="0" type="line"/>
      <point x="128" y="336" type="line"/>
      <point x="152" y="405"/>
      <point x="199" y="443"/>
      <point x="262" y="443" type="curve" smooth="yes"/>
      <point x="277" y="443"/>
      <point x="294" y="441"/>
      <point x="306" y="437" type="curve"/>
      <point x="306" y="484" type="line"/>
      <point x="293" y="487"/>
      <point x="278" y="489"/>
      <point x="263" y="489" type="curve" smooth="yes"/>
      <point x="201" y="489"/>
      <point x="153" y="452"/>
      <point x="128" y="390" type="curve"/>
      <point x="128" y="481" type="line"/>
      <point x="78" y="481" type="line"/>
    </contour>
  </outline>
</glyph>
<glyph name="t" format="2">
  <advance width="352"/>
  <unicode hex="0074"/>
  <anchor x="214" y="0" name="bottom"/>
  <outline>
    <contour>
      <point x="241" y="-10" type="curve" smooth="yes"/>
      <point x="268" y="-10"/>
      <point x="292" y="-6"/>
      <point x="319" y="3" type="curve"/>
      <point x="319" y="50" type="line"/>
      <point x="295" y="41"/>
      <point x="279" y="36"/>
      <point x="250" y="36" type="curve" smooth="yes"/>
      <point x="198" y="36"/>
      <point x="178" y="58"/>
      <point x="178" y="113" type="curve" smooth="yes"/>
      <point x="178" y="438" type="line"/>
      <point x="319" y="438" type="line"/>
      <point x="319" y="481" type="line"/>
      <point x="178" y="481" type="line"/>
      <point x="178" y="625" type="line"/>
      <point x="128" y="612" type="line"/>
      <point x="128" y="481" type="line"/>
      <point x="27" y="481" type="line"/>
      <point x="27" y="438" type="line"/>
      <point x="128" y="438" type="line"/>
      <point x="128" y="97" type="line" smooth="yes"/>
      <point x="128" y="30"/>
      <point x="166" y="-10"/>
    </contour>
  </outline>
</glyph>
<glyph name="v" format="2">
  <advance width="477"/>
  <unicode hex="0076"/>
  <outline>
    <contour>
      <point x="215" y="0" type="line"/>
      <point x="262" y="0" type="line"/>
      <point x="460" y="481" type="line"/>
      <point x="407" y="481" type="line"/>
      <point x="240" y="63" type="line"/>
      <point x="70" y="481" type="line"/>
      <point x="17" y="481" type="line"/>
    </contour>
  </outline>
</glyph>
<glyph name="z" format="2">
  <advance width="445"/>
  <unicode hex="007A"/>
  <anchor x="218" y="481" name="top"/>
  <outline>
    <contour>
      <point x="42" y="0" type="line"/>
      <point x="399" y="0" type="line"/>
      <point x="399" y="46" type="line"/>
      <point x="103" y="46" type="line"/>
      <point x="397" y="438" type="line"/>
      <point x="397" y="481" type="line"/>
      <point x="45" y="481" type="line"/>
      <point x="45" y="435" type="line"/>
      <point x="336" y="435" type="line"/>
      <point x="42" y="43" type="line"/>
    </contour>
  </outline>
</glyph>
<glyph name="braceleft" format="2">
  <advance width="378"/>
  <unicode hex="007B"/>
  <outline>
    <contour>
      <point x="256" y="-219" type="curve"/>
      <point x="281" y="-219"/>
      <point x="302" y="-214"/>
      <point x="326" y="-205" type="curve"/>
      <point x="314" y="-164" type="line"/>
      <point x="294" y="-171"/>
      <point x="277" y="-175"/>
      <point x="255" y="-175" type="curve"/>
      <point x="200" y="-174"/>
      <point x="159" y="-132"/>
      <point x="192" y="-44" type="curve" smooth="yes"/>
      <point x="241" y="85" type="line" smooth="yes"/>
      <point x="272" y="166"/>
      <point x="230" y="225"/>
      <point x="173" y="245" type="curve"/>
      <point x="230" y="265"/>
      <point x="271" y="324"/>
      <point x="241" y="405" type="curve" smooth="yes"/>
      <point x="192" y="536" type="line" smooth="yes"/>
      <point x="159" y="624"/>
      <point x="200" y="666"/>
      <point x="255" y="667" type="curve"/>
      <point x="277" y="667"/>
      <point x="294" y="663"/>
      <point x="314" y="656" type="curve"/>
      <point x="326" y="697" type="line"/>
      <point x="302" y="706"/>
      <point x="281" y="711"/>
      <point x="256" y="711" type="curve"/>
      <point x="151" y="711"/>
      <point x="105" y="625"/>
      <point x="149" y="514" type="curve" smooth="yes"/>
      <point x="191" y="409" type="line" smooth="yes"/>
      <point x="223" y="329"/>
      <point x="191" y="269"/>
      <point x="120" y="269" type="curve" smooth="yes"/>
      <point x="46" y="269" type="line"/>
      <point x="46" y="222" type="line"/>
      <point x="120" y="222" type="line" smooth="yes"/>
      <point x="191" y="222"/>
      <point x="224" y="161"/>
      <point x="191" y="81" type="curve" smooth="yes"/>
      <point x="149" y="-22" type="line" smooth="yes"/>
      <point x="104" y="-133"/>
      <point x="151" y="-219"/>
    </contour>
  </outline>
</glyph>
<glyph name="bar" format="2">
  <advance width="275"/>
  <unicode hex="007C"/>
  <outline>
    <contour>
      <point x="114" y="-209" type="line"/>
      <point x="161" y="-209" type="line"/>
      <point x="161" y="700" type="line"/>
      <point x="114" y="700" type="line"/>
    </contour>
  </outline>
</glyph>
<glyph name="sterling" format="2">
  <advance width="605"/>
  <unicode hex="00A3"/>
  <outline>
    <contour>
      <point x="440" y="-25" type="curve" smooth="yes"/>
      <point x="506" y="-25"/>
      <point x="557" y="4"/>
      <point x="591" y="64" type="curve"/>
      <point x="552" y="89" type="line"/>
      <point x="528" y="45"/>
      <point x="492" y="22"/>
      <point x="441" y="22" type="curve" smooth="yes"/>
      <point x="424" y="22"/>
      <point x="406" y="24"/>
      <point x="386" y="29" type="curve" smooth="yes"/>
      <point x="202" y="74" type="line"/>
      <point x="220" y="92"/>
      <point x="230" y="121"/>
      <point x="230" y="156" type="curve" smooth="yes"/>
      <point x="230" y="168"/>
      <point x="229" y="180"/>
      <point x="210" y="294" type="curve"/>
      <point x="405" y="294" type="line"/>
      <point x="405" y="338" type="line"/>
      <point x="202" y="338" type="line"/>
      <point x="182" y="457"/>
      <point x="181" y="478"/>
      <point x="181" y="497" type="curve" smooth="yes"/>
      <point x="181" y="600"/>
      <point x="231" y="665"/>
      <point x="326" y="665" type="curve" smooth="yes"/>
      <point x="408" y="665"/>
      <point x="466" y="615"/>
      <point x="484" y="525" type="curve"/>
      <point x="531" y="538" type="line"/>
      <point x="507" y="650"/>
      <point x="435" y="711"/>
      <point x="326" y="711" type="curve" smooth="yes"/>
      <point x="201" y="711"/>
      <point x="131" y="631"/>
      <point x="131" y="497" type="curve" smooth="yes"/>
      <point x="131" y="472"/>
      <point x="133" y="446"/>
      <point x="152" y="338" type="curve"/>
      <point x="53" y="338" type="line"/>
      <point x="53" y="294" type="line"/>
      <point x="159" y="294" type="line"/>
      <point x="181" y="170"/>
      <point x="182" y="160"/>
      <point x="182" y="151" type="curve" smooth="yes"/>
      <point x="182" y="119"/>
      <point x="171" y="95"/>
      <point x="152" y="81" type="curve"/>
      <point x="94" y="83"/>
      <point x="48" y="59"/>
      <point x="14" y="0" type="curve"/>
      <point x="50" y="-25" type="line"/>
      <point x="70" y="16"/>
      <point x="97" y="34"/>
      <point x="140" y="34" type="curve" smooth="yes"/>
      <point x="156" y="34"/>
      <point x="173" y="32"/>
      <point x="194" y="27" type="curve" smooth="yes"/>
      <point x="375" y="-17" type="line" smooth="yes"/>
      <point x="398" y="-23"/>
      <point x="420" y="-25"/>
    </contour>
  </outline>
</glyph>
<glyph name="uni00A4" format="2">
  <advance width="632"/>
  <unicode hex="00A4"/>
  <outline>
    <contour>
      <point x="59" y="69" type="line"/>
      <point x="152" y="163" type="line"/>
      <point x="196" y="125"/>
      <point x="253" y="102"/>
      <point x="316" y="102" type="curve" smooth="yes"/>
      <point x="379" y="102"/>
      <point x="436" y="125"/>
      <point x="480" y="163" type="curve"/>
      <point x="573" y="69" type="line"/>
      <point x="602" y="100" type="line"/>
      <point x="508" y="195" type="line"/>
      <point x="544" y="239"/>
      <point x="565" y="295"/>
      <point x="565" y="360" type="curve" smooth="yes"/>
      <point x="565" y="425"/>
      <point x="544" y="481"/>
      <point x="508" y="525" type="curve"/>
      <point x="602" y="620" type="line"/>
      <point x="573" y="651" type="line"/>
      <point x="480" y="557" type="line"/>
      <point x="436" y="595"/>
      <point x="379" y="618"/>
      <point x="316" y="618" type="curve" smooth="yes"/>
      <point x="253" y="618"/>
      <point x="196" y="595"/>
      <point x="152" y="557" type="curve"/>
      <point x="59" y="651" type="line"/>
      <point x="30" y="620" type="line"/>
      <point x="124" y="525" type="line"/>
      <point x="88" y="481"/>
      <point x="67" y="425"/>
      <point x="67" y="360" type="curve" smooth="yes"/>
      <point x="67" y="295"/>
      <point x="88" y="239"/>
      <point x="124" y="195" type="curve"/>
      <point x="30" y="100" type="line"/>
    </contour>
    <contour>
      <point x="316" y="150" type="curve" smooth="yes"/>
      <point x="205" y="150"/>
      <point x="119" y="242"/>
      <point x="119" y="360" type="curve" smooth="yes"/>
      <point x="119" y="478"/>
      <point x="205" y="570"/>
      <point x="316" y="570" type="curve" smooth="yes"/>
      <point x="427" y="570"/>
      <point x="513" y="478"/>
      <point x="513" y="360" type="curve" smooth="yes"/>
      <point x="513" y="242"/>
      <point x="427" y="150"/>
    </contour>
  </outline>
</glyph>
<glyph name="yen" format="2">
  <advance width="621"/>
  <unicode hex="00A5"/>
  <outline>
    <contour>
      <point x="284" y="0" type="line"/>
      <point x="336" y="0" type="line"/>
      <point x="336" y="138" type="line"/>
      <point x="518" y="138" type="line"/>
      <point x="518" y="182" type="line"/>
      <point x="336" y="182" type="line"/>
      <point x="336" y="266" type="line"/>
      <point x="518" y="266" type="line"/>
      <point x="518" y="310" type="line"/>
      <point x="350" y="310" type="line"/>
      <point x="606" y="700" type="line"/>
      <point x="548" y="700" type="line"/>
      <point x="312" y="336" type="line"/>
      <point x="76" y="700" type="line"/>
      <point x="15" y="700" type="line"/>
      <point x="272" y="310" type="line"/>
      <point x="102" y="310" type="line"/>
      <point x="102" y="266" type="line"/>
      <point x="284" y="266" type="line"/>
      <point x="284" y="182" type="line"/>
      <point x="102" y="182" type="line"/>
      <point x="102" y="138" type="line"/>
      <point x="284" y="138" type="line"/>
    </contour>
  </outline>
</glyph>
<glyph name="dieresis" format="2">
  <advance width="600"/>
  <unicode hex="00A8"/>
  <outline>
    <contour>
      <point x="197" y="607" type="curve" smooth="yes"/>
      <point x="222" y="607"/>
      <point x="243" y="627"/>
      <point x="243" y="654" type="curve" smooth="yes"/>
      <point x="243" y="679"/>
      <point x="222" y="700"/>
      <point x="197" y="700" type="curve" smooth="yes"/>
      <point x="172" y="700"/>
      <point x="151" y="679"/>
      <point x="151" y="654" type="curve" smooth="yes"/>
      <point x="151" y="627"/>
      <point x="172" y="607"/>
    </contour>
    <contour>
      <point x="403" y="607" type="curve" smooth="yes"/>
      <point x="428" y="607"/>
      <point x="449" y="627"/>
      <point x="449" y="654" type="curve" smooth="yes"/>
      <point x="449" y="679"/>
      <point x="428" y="700"/>
      <point x="403" y="700" type="curve" smooth="yes"/>
      <point x="378" y="700"/>
      <point x="357" y="679"/>
      <point x="357" y="654" type="curve" smooth="yes"/>
      <point x="357" y="627"/>
      <point x="378" y="607"/>
    </contour>
  </outline>
</glyph>
<glyph name="ordfeminine" format="2">
  <advance width="397"/>
  <unicode hex="00AA"/>
  <outline>
    <contour>
      <point x="174" y="324" type="curve" smooth="yes"/>
      <point x="222" y="324"/>
      <point x="263" y="341"/>
      <point x="297" y="374" type="curve"/>
      <point x="297" y="331" type="line"/>
      <point x="341" y="331" type="line"/>
      <point x="341" y="583" type="line" smooth="yes"/>
      <point x="341" y="665"/>
      <point x="290" y="711"/>
      <point x="197" y="711" type="curve" smooth="yes"/>
      <point x="152" y="711"/>
      <point x="109" y="700"/>
      <point x="59" y="674" type="curve"/>
      <point x="76" y="639" type="line"/>
      <point x="122" y="662"/>
      <point x="158" y="672"/>
      <point x="194" y="672" type="curve" smooth="yes"/>
      <point x="262" y="672"/>
      <point x="297" y="640"/>
      <point x="297" y="577" type="curve" smooth="yes"/>
      <point x="297" y="519" type="line"/>
      <point x="263" y="539"/>
      <point x="223" y="550"/>
      <point x="185" y="550" type="curve" smooth="yes"/>
      <point x="94" y="550"/>
      <point x="35" y="505"/>
      <point x="35" y="436" type="curve" smooth="yes"/>
      <point x="35" y="370"/>
      <point x="92" y="324"/>
    </contour>
    <contour>
      <point x="180" y="361" type="curve" smooth="yes"/>
      <point x="120" y="361"/>
      <point x="79" y="392"/>
      <point x="79" y="438" type="curve" smooth="yes"/>
      <point x="79" y="485"/>
      <point x="120" y="515"/>
      <point x="182" y="515" type="curve" smooth="yes"/>
      <point x="229" y="515"/>
      <point x="265" y="505"/>
      <point x="297" y="482" type="curve"/>
      <point x="297" y="408" type="line"/>
      <point x="266" y="377"/>
      <point x="227" y="361"/>
    </contour>
  </outline>
</glyph>
<glyph name="registered" format="2">
  <advance width="494"/>
  <unicode hex="00AE"/>
  <outline>
    <contour>
      <point x="247" y="313" type="curve"/>
      <point x="353" y="313"/>
      <point x="435" y="400"/>
      <point x="435" y="512" type="curve"/>
      <point x="435" y="624"/>
      <point x="353" y="711"/>
      <point x="247" y="711" type="curve"/>
      <point x="141" y="711"/>
      <point x="59" y="624"/>
      <point x="59" y="512" type="curve"/>
      <point x="59" y="400"/>
      <point x="141" y="313"/>
    </contour>
    <contour>
      <point x="247" y="343" type="curve"/>
      <point x="156" y="343"/>
      <point x="90" y="415"/>
      <point x="90" y="512" type="curve"/>
      <point x="90" y="609"/>
      <point x="156" y="681"/>
      <point x="247" y="681" type="curve"/>
      <point x="338" y="681"/>
      <point x="404" y="609"/>
      <point x="404" y="512" type="curve"/>
      <point x="404" y="415"/>
      <point x="338" y="343"/>
    </contour>
    <contour>
      <point x="186" y="419" type="line"/>
      <point x="214" y="419" type="line"/>
      <point x="214" y="491" type="line"/>
      <point x="252" y="491" type="line"/>
      <point x="294" y="419" type="line"/>
      <point x="325" y="419" type="line"/>
      <point x="279" y="497" type="line"/>
      <point x="301" y="507"/>
      <point x="313" y="527"/>
      <point x="313" y="549" type="curve" smooth="yes"/>
      <point x="313" y="585"/>
      <point x="291" y="607"/>
      <point x="254" y="607" type="curve" smooth="yes"/>
      <point x="186" y="607" type="line"/>
    </contour>
    <contour>
      <point x="251" y="582" type="line" smooth="yes"/>
      <point x="274" y="582"/>
      <point x="286" y="570"/>
      <point x="286" y="549" type="curve" smooth="yes"/>
      <point x="286" y="527"/>
      <point x="273" y="515"/>
      <point x="251" y="515" type="curve" smooth="yes"/>
      <point x="214" y="515" type="line"/>
      <point x="214" y="582" type="line"/>
    </contour>
  </outline>
</glyph>
<glyph name="macron" format="2">
  <advance width="600"/>
  <unicode hex="00AF"/>
  <outline>
    <contour>
      <point x="170" y="607" type="line"/>
      <point x="430" y="607" type="line"/>
      <point x="430" y="647" type="line"/>
      <point x="170" y="647" type="line"/>
    </contour>
  </outline>
</glyph>
<glyph name="twosuperior" format="2">
  <advance width="285"/>
  <unicode hex="00B2"/>
  <outline>
    <contour>
      <point x="26" y="350" type="line"/>
      <point x="263" y="350" type="line"/>
      <point x="263" y="385" type="line"/>
      <point x="81" y="385" type="line"/>
      <point x="190" y="489" type="line" smooth="yes"/>
      <point x="241" y="538"/>
      <point x="258" y="563"/>
      <point x="258" y="605" type="curve" smooth="yes"/>
      <point x="258" y="663"/>
      <point x="209" y="705"/>
      <point x="141" y="705" type="curve" smooth="yes"/>
      <point x="99" y="705"/>
      <point x="60" y="689"/>
      <point x="20" y="655" type="curve"/>
      <point x="43" y="625" type="line"/>
      <point x="80" y="657"/>
      <point x="106" y="670"/>
      <point x="140" y="670" type="curve" smooth="yes"/>
      <point x="185" y="670"/>
      <point x="218" y="642"/>
      <point x="218" y="602" type="curve" smooth="yes"/>
      <point x="218" y="570"/>
      <point x="204" y="547"/>
      <point x="163" y="508" type="curve" smooth="yes"/>
      <point x="26" y="380" type="line"/>
    </contour>
  </outline>
</glyph>
<glyph name="threesuperior" format="2">
  <advance width="307"/>
  <unicode hex="00B3"/>
  <outline>
    <contour>
      <point x="148" y="345" type="curve"/>
      <point x="224" y="345"/>
      <point x="277" y="387"/>
      <point x="277" y="446" type="curve"/>
      <point x="277" y="486"/>
      <point x="244" y="520"/>
      <point x="191" y="529" type="curve"/>
      <point x="238" y="544"/>
      <point x="264" y="576"/>
      <point x="264" y="610" type="curve"/>
      <point x="264" y="665"/>
      <point x="214" y="705"/>
      <point x="147" y="705" type="curve"/>
      <point x="101" y="705"/>
      <point x="61" y="689"/>
      <point x="25" y="660" type="curve"/>
      <point x="48" y="630" type="line"/>
      <point x="81" y="656"/>
      <point x="110" y="670"/>
      <point x="146" y="670" type="curve"/>
      <point x="191" y="670"/>
      <point x="224" y="643"/>
      <point x="224" y="608" type="curve"/>
      <point x="224" y="572"/>
      <point x="193" y="541"/>
      <point x="142" y="541" type="curve"/>
      <point x="115" y="541" type="line"/>
      <point x="115" y="510" type="line"/>
      <point x="145" y="510" type="line"/>
      <point x="203" y="510"/>
      <point x="237" y="484"/>
      <point x="237" y="446" type="curve"/>
      <point x="237" y="408"/>
      <point x="201" y="380"/>
      <point x="148" y="380" type="curve"/>
      <point x="111" y="380"/>
      <point x="77" y="394"/>
      <point x="42" y="419" type="curve"/>
      <point x="20" y="388" type="line"/>
      <point x="58" y="359"/>
      <point x="100" y="345"/>
    </contour>
  </outline>
</glyph>
<glyph name="acute" format="2">
  <advance width="600"/>
  <unicode hex="00B4"/>
  <outline>
    <contour>
      <point x="262" y="579" type="line"/>
      <point x="310" y="579" type="line"/>
      <point x="442" y="695" type="line"/>
      <point x="367" y="695" type="line"/>
    </contour>
  </outline>
</glyph>
<glyph name="uni00B5" format="2">
  <advance width="537"/>
  <unicode hex="00B5"/>
  <outline>
    <contour>
      <point x="78" y="-209" type="line"/>
      <point x="128" y="-209" type="line"/>
      <point x="128" y="42" type="line"/>
      <point x="159" y="10"/>
      <point x="204" y="-8"/>
      <point x="257" y="-8" type="curve" smooth="yes"/>
      <point x="321" y="-8"/>
      <point x="372" y="20"/>
      <point x="409" y="73" type="curve"/>
      <point x="409" y="0" type="line"/>
      <point x="459" y="0" type="line"/>
      <point x="459" y="481" type="line"/>
      <point x="409" y="481" type="line"/>
      <point x="409" y="114" type="line"/>
      <point x="379" y="65"/>
      <point x="330" y="36"/>
      <point x="271" y="36" type="curve" smooth="yes"/>
      <point x="184" y="36"/>
      <point x="128" y="95"/>
      <point x="128" y="187" type="curve"/>
      <point x="128" y="481" type="line"/>
      <point x="78" y="481" type="line"/>
    </contour>
  </outline>
</glyph>
<glyph name="periodcentered" format="2">
  <advance width="250"/>
  <unicode hex="00B7"/>
  <outline>
    <contour>
      <point x="125" y="237" type="curve" smooth="yes"/>
      <point x="150" y="237"/>
      <point x="171" y="257"/>
      <point x="171" y="284" type="curve" smooth="yes"/>
      <point x="171" y="309"/>
      <point x="150" y="330"/>
      <point x="125" y="330" type="curve" smooth="yes"/>
      <point x="100" y="330"/>
      <point x="79" y="309"/>
      <point x="79" y="284" type="curve" smooth="yes"/>
      <point x="79" y="257"/>
      <point x="100" y="237"/>
    </contour>
  </outline>
</glyph>
<glyph name="ordmasculine" format="2">
  <advance width="458"/>
  <unicode hex="00BA"/>
  <guideline x="237" y="513" angle="0.0" identifier="DOoPkU7MI3"/>
  <outline>
    <contour>
      <point x="229" y="323" type="curve" smooth="yes"/>
      <point x="334" y="323"/>
      <point x="417" y="408"/>
      <point x="417" y="517" type="curve" smooth="yes"/>
      <point x="417" y="626"/>
      <point x="334" y="711"/>
      <point x="229" y="711" type="curve" smooth="yes"/>
      <point x="124" y="711"/>
      <point x="41" y="626"/>
      <point x="41" y="517" type="curve" smooth="yes"/>
      <point x="41" y="408"/>
      <point x="124" y="323"/>
    </contour>
    <contour>
      <point x="229" y="364" type="curve" smooth="yes"/>
      <point x="148" y="364"/>
      <point x="85" y="432"/>
      <point x="85" y="517" type="curve" smooth="yes"/>
      <point x="85" y="602"/>
      <point x="148" y="670"/>
      <point x="229" y="670" type="curve" smooth="yes"/>
      <point x="310" y="670"/>
      <point x="373" y="602"/>
      <point x="373" y="517" type="curve" smooth="yes"/>
      <point x="373" y="432"/>
      <point x="310" y="364"/>
    </contour>
  </outline>
</glyph>
<glyph name="Oslash" format="2">
  <advance width="808"/>
  <unicode hex="00D8"/>
  <outline>
    <contour>
      <point x="404" y="-11" type="curve" smooth="yes"/>
      <point x="596" y="-11"/>
      <point x="748" y="148"/>
      <point x="748" y="350" type="curve" smooth="yes"/>
      <point x="748" y="452"/>
      <point x="709" y="544"/>
      <point x="645" y="609" type="curve"/>
      <point x="720" y="700" type="line"/>
      <point x="663" y="700" type="line"/>
      <point x="613" y="639" type="line"/>
      <point x="555" y="684"/>
      <point x="483" y="711"/>
      <point x="404" y="711" type="curve" smooth="yes"/>
      <point x="212" y="711"/>
      <point x="60" y="552"/>
      <point x="60" y="350" type="curve" smooth="yes"/>
      <point x="60" y="248"/>
      <point x="99" y="156"/>
      <point x="163" y="91" type="curve"/>
      <point x="88" y="0" type="line"/>
      <point x="145" y="0" type="line"/>
      <point x="195" y="61" type="line"/>
      <point x="253" y="16"/>
      <point x="325" y="-11"/>
    </contour>
    <contour>
      <point x="194" y="129" type="line"/>
      <point x="143" y="186"/>
      <point x="112" y="263"/>
      <point x="112" y="350" type="curve" smooth="yes"/>
      <point x="112" y="526"/>
      <point x="239" y="663"/>
      <point x="404" y="663" type="curve" smooth="yes"/>
      <point x="472" y="663"/>
      <point x="533" y="640"/>
      <point x="581" y="601" type="curve"/>
    </contour>
    <contour>
      <point x="404" y="37" type="curve" smooth="yes"/>
      <point x="336" y="37"/>
      <point x="275" y="60"/>
      <point x="227" y="99" type="curve"/>
      <point x="614" y="571" type="line"/>
      <point x="665" y="514"/>
      <point x="696" y="437"/>
      <point x="696" y="350" type="curve" smooth="yes"/>
      <point x="696" y="174"/>
      <point x="569" y="37"/>
    </contour>
  </outline>
</glyph>
<glyph name="Thorn" format="2">
  <advance width="639"/>
  <unicode hex="00DE"/>
  <outline>
    <contour>
      <point x="92" y="0" type="line"/>
      <point x="144" y="0" type="line"/>
      <point x="144" y="150" type="line"/>
      <point x="367" y="150" type="line" smooth="yes"/>
      <point x="501" y="150"/>
      <point x="584" y="230"/>
      <point x="584" y="351" type="curve" smooth="yes"/>
      <point x="584" y="472"/>
      <point x="501" y="552"/>
      <point x="367" y="552" type="curve" smooth="yes"/>
      <point x="144" y="552" type="line"/>
      <point x="144" y="700" type="line"/>
      <point x="92" y="700" type="line"/>
    </contour>
    <contour>
      <point x="144" y="197" type="line"/>
      <point x="144" y="505" type="line"/>
      <point x="364" y="505" type="line" smooth="yes"/>
      <point x="471" y="505"/>
      <point x="532" y="444"/>
      <point x="532" y="351" type="curve" smooth="yes"/>
      <point x="532" y="258"/>
      <point x="471" y="197"/>
      <point x="364" y="197" type="curve" smooth="yes"/>
    </contour>
  </outline>
</glyph>
<glyph name="ae" format="2">
  <advance width="882"/>
  <unicode hex="00E6"/>
  <guideline x="436" y="489" angle="0.0" color="0.999,0.001,0.001,0.999" identifier="lKD77M5qcq"/>
  <outline>
    <contour>
      <point x="233" y="-10" type="curve" smooth="yes"/>
      <point x="317" y="-10"/>
      <point x="385" y="27"/>
      <point x="434" y="92" type="curve"/>
      <point x="476" y="30"/>
      <point x="545" y="-10"/>
      <point x="624" y="-10" type="curve" smooth="yes"/>
      <point x="689" y="-10"/>
      <point x="745" y="11"/>
      <point x="798" y="52" type="curve"/>
      <point x="768" y="89" type="line"/>
      <point x="733" y="57"/>
      <point x="679" y="36"/>
      <point x="626" y="36" type="curve" smooth="yes"/>
      <point x="523" y="36"/>
      <point x="444" y="118"/>
      <point x="440" y="231" type="curve"/>
      <point x="829" y="231" type="line"/>
      <point x="829" y="250" type="line" smooth="yes"/>
      <point x="829" y="385"/>
      <point x="734" y="489"/>
      <point x="612" y="489" type="curve" smooth="yes"/>
      <point x="537" y="489"/>
      <point x="471" y="448"/>
      <point x="431" y="383" type="curve"/>
      <point x="410" y="453"/>
      <point x="350" y="489"/>
      <point x="260" y="489" type="curve" smooth="yes"/>
      <point x="205" y="489"/>
      <point x="152" y="475"/>
      <point x="90" y="444" type="curve"/>
      <point x="110" y="403" type="line"/>
      <point x="166" y="433"/>
      <point x="211" y="447"/>
      <point x="258" y="447" type="curve" smooth="yes"/>
      <point x="343" y="447"/>
      <point x="390" y="403"/>
      <point x="390" y="314" type="curve" smooth="yes"/>
      <point x="390" y="239" type="line"/>
      <point x="348" y="268"/>
      <point x="295" y="282"/>
      <point x="234" y="282" type="curve" smooth="yes"/>
      <point x="133" y="282"/>
      <point x="56" y="227"/>
      <point x="56" y="138" type="curve" smooth="yes"/>
      <point x="56" y="48"/>
      <point x="131" y="-10"/>
    </contour>
    <contour>
      <point x="442" y="272" type="line"/>
      <point x="455" y="372"/>
      <point x="526" y="443"/>
      <point x="612" y="443" type="curve" smooth="yes"/>
      <point x="700" y="443"/>
      <point x="769" y="370"/>
      <point x="778" y="272" type="curve"/>
    </contour>
    <contour>
      <point x="238" y="32" type="curve" smooth="yes"/>
      <point x="161" y="32"/>
      <point x="105" y="74"/>
      <point x="105" y="139" type="curve" smooth="yes"/>
      <point x="105" y="202"/>
      <point x="157" y="240"/>
      <point x="240" y="240" type="curve" smooth="yes"/>
      <point x="299" y="240"/>
      <point x="349" y="226"/>
      <point x="395" y="195" type="curve"/>
      <point x="398" y="171"/>
      <point x="405" y="148"/>
      <point x="415" y="128" type="curve"/>
      <point x="370" y="68"/>
      <point x="314" y="32"/>
    </contour>
  </outline>
</glyph>
<glyph name="ccedilla" format="2">
  <advance width="501"/>
  <unicode hex="00E7"/>
  <outline>
    <contour>
      <point x="277" y="-235" type="curve" smooth="yes"/>
      <point x="340" y="-235"/>
      <point x="383" y="-198"/>
      <point x="383" y="-147" type="curve" smooth="yes"/>
      <point x="383" y="-100"/>
      <point x="345" y="-70"/>
      <point x="287" y="-68" type="curve"/>
      <point x="300" y="-10" type="line"/>
      <point x="364" y="-8"/>
      <point x="425" y="18"/>
      <point x="471" y="62" type="curve"/>
      <point x="440" y="99" type="line"/>
      <point x="403" y="60"/>
      <point x="346" y="36"/>
      <point x="293" y="36" type="curve" smooth="yes"/>
      <point x="187" y="36"/>
      <point x="106" y="127"/>
      <point x="106" y="240" type="curve" smooth="yes"/>
      <point x="106" y="353"/>
      <point x="187" y="443"/>
      <point x="293" y="443" type="curve" smooth="yes"/>
      <point x="346" y="443"/>
      <point x="403" y="419"/>
      <point x="440" y="380" type="curve"/>
      <point x="471" y="417" type="line"/>
      <point x="423" y="463"/>
      <point x="358" y="489"/>
      <point x="291" y="489" type="curve" smooth="yes"/>
      <point x="159" y="489"/>
      <point x="56" y="380"/>
      <point x="56" y="240" type="curve" smooth="yes"/>
      <point x="56" y="109"/>
      <point x="147" y="4"/>
      <point x="267" y="-9" type="curve"/>
      <point x="244" y="-96" type="line"/>
      <point x="269" y="-96" type="line" smooth="yes"/>
      <point x="317" y="-96"/>
      <point x="345" y="-115"/>
      <point x="345" y="-149" type="curve" smooth="yes"/>
      <point x="345" y="-183"/>
      <point x="319" y="-204"/>
      <point x="276" y="-204" type="curve" smooth="yes"/>
      <point x="246" y="-204"/>
      <point x="219" y="-194"/>
      <point x="196" y="-175" type="curve"/>
      <point x="174" y="-201" type="line"/>
      <point x="200" y="-224"/>
      <point x="236" y="-235"/>
    </contour>
  </outline>
</glyph>
<glyph name="eth" format="2">
  <advance width="589"/>
  <unicode hex="00F0"/>
  <guideline x="476" y="665" angle="0.0" identifier="LMqjeUiIHk"/>
  <outline>
    <contour>
      <point x="289" y="-10" type="curve" smooth="yes"/>
      <point x="431" y="-10"/>
      <point x="529" y="106"/>
      <point x="529" y="281" type="curve" smooth="yes"/>
      <point x="529" y="435"/>
      <point x="486" y="557"/>
      <point x="403" y="641" type="curve"/>
      <point x="504" y="706" type="line"/>
      <point x="483" y="739" type="line"/>
      <point x="372" y="668" type="line"/>
      <point x="335" y="698"/>
      <point x="291" y="721"/>
      <point x="241" y="737" type="curve"/>
      <point x="225" y="699" type="line"/>
      <point x="267" y="685"/>
      <point x="303" y="667"/>
      <point x="334" y="644" type="curve"/>
      <point x="246" y="587" type="line"/>
      <point x="268" y="553" type="line"/>
      <point x="366" y="617" type="line"/>
      <point x="432" y="554"/>
      <point x="470" y="465"/>
      <point x="482" y="354" type="curve"/>
      <point x="447" y="429"/>
      <point x="372" y="480"/>
      <point x="282" y="480" type="curve" smooth="yes"/>
      <point x="154" y="480"/>
      <point x="57" y="381"/>
      <point x="57" y="239" type="curve" smooth="yes"/>
      <point x="57" y="99"/>
      <point x="159" y="-10"/>
    </contour>
    <contour>
      <point x="291" y="36" type="curve" smooth="yes"/>
      <point x="187" y="36"/>
      <point x="107" y="123"/>
      <point x="107" y="236" type="curve" smooth="yes"/>
      <point x="107" y="349"/>
      <point x="187" y="436"/>
      <point x="291" y="436" type="curve" smooth="yes"/>
      <point x="395" y="436"/>
      <point x="475" y="349"/>
      <point x="475" y="236" type="curve" smooth="yes"/>
      <point x="475" y="123"/>
      <point x="395" y="36"/>
    </contour>
  </outline>
</glyph>
<glyph name="divide" format="2">
  <advance width="600"/>
  <unicode hex="00F7"/>
  <outline>
    <contour>
      <point x="300" y="490" type="curve" smooth="yes"/>
      <point x="323" y="490"/>
      <point x="343" y="509"/>
      <point x="343" y="533" type="curve" smooth="yes"/>
      <point x="343" y="557"/>
      <point x="323" y="576"/>
      <point x="300" y="576" type="curve" smooth="yes"/>
      <point x="277" y="576"/>
      <point x="257" y="557"/>
      <point x="257" y="533" type="curve" smooth="yes"/>
      <point x="257" y="509"/>
      <point x="277" y="490"/>
    </contour>
    <contour>
      <point x="300" y="142" type="curve" smooth="yes"/>
      <point x="323" y="142"/>
      <point x="343" y="161"/>
      <point x="343" y="185" type="curve" smooth="yes"/>
      <point x="343" y="209"/>
      <point x="323" y="228"/>
      <point x="300" y="228" type="curve" smooth="yes"/>
      <point x="277" y="228"/>
      <point x="257" y="209"/>
      <point x="257" y="185" type="curve" smooth="yes"/>
      <point x="257" y="161"/>
      <point x="277" y="142"/>
    </contour>
    <contour>
      <point x="109" y="335" type="line"/>
      <point x="490" y="335" type="line"/>
      <point x="490" y="380" type="line"/>
      <point x="109" y="380" type="line"/>
    </contour>
  </outline>
</glyph>
<glyph name="aogonek" format="2">
  <advance width="512"/>
  <unicode hex="0105"/>
  <outline>
    <contour>
      <point x="391" y="-231" type="curve" smooth="yes"/>
      <point x="417" y="-231"/>
      <point x="441" y="-224"/>
      <point x="458" y="-213" type="curve"/>
      <point x="446" y="-182" type="line"/>
      <point x="433" y="-190"/>
      <point x="414" y="-195"/>
      <point x="397" y="-195" type="curve" smooth="yes"/>
      <point x="354" y="-195"/>
      <point x="325" y="-174"/>
      <point x="325" y="-134" type="curve" smooth="yes"/>
      <point x="325" y="-97"/>
      <point x="351" y="-56"/>
      <point x="435" y="0" type="curve"/>
      <point x="435" y="323" type="line" smooth="yes"/>
      <point x="435" y="432"/>
      <point x="369" y="489"/>
      <point x="256" y="489" type="curve" smooth="yes"/>
      <point x="201" y="489"/>
      <point x="148" y="475"/>
      <point x="86" y="444" type="curve"/>
      <point x="106" y="403" type="line"/>
      <point x="162" y="433"/>
      <point x="207" y="447"/>
      <point x="254" y="447" type="curve" smooth="yes"/>
      <point x="339" y="447"/>
      <point x="386" y="403"/>
      <point x="386" y="314" type="curve" smooth="yes"/>
      <point x="386" y="239" type="line"/>
      <point x="344" y="268"/>
      <point x="291" y="282"/>
      <point x="230" y="282" type="curve" smooth="yes"/>
      <point x="129" y="282"/>
      <point x="52" y="227"/>
      <point x="52" y="138" type="curve" smooth="yes"/>
      <point x="52" y="48"/>
      <point x="127" y="-10"/>
      <point x="228" y="-10" type="curve" smooth="yes"/>
      <point x="291" y="-10"/>
      <point x="344" y="15"/>
      <point x="386" y="59" type="curve"/>
      <point x="386" y="0" type="line"/>
      <point x="387" y="0" type="line"/>
      <point x="312" y="-55"/>
      <point x="285" y="-96"/>
      <point x="285" y="-142" type="curve" smooth="yes"/>
      <point x="285" y="-193"/>
      <point x="323" y="-231"/>
    </contour>
    <contour>
      <point x="234" y="32" type="curve" smooth="yes"/>
      <point x="157" y="32"/>
      <point x="101" y="74"/>
      <point x="101" y="139" type="curve" smooth="yes"/>
      <point x="101" y="202"/>
      <point x="158" y="240"/>
      <point x="235" y="240" type="curve" smooth="yes"/>
      <point x="297" y="240"/>
      <point x="343" y="227"/>
      <point x="386" y="198" type="curve"/>
      <point x="386" y="98" type="line"/>
      <point x="345" y="55"/>
      <point x="297" y="32"/>
    </contour>
  </outline>
</glyph>
<glyph name="lslash" format="2">
  <advance width="239"/>
  <unicode hex="0142"/>
  <outline>
    <contour>
      <point x="96" y="0" type="line"/>
      <point x="146" y="0" type="line"/>
      <point x="146" y="355" type="line"/>
      <point x="242" y="435" type="line"/>
      <point x="242" y="489" type="line"/>
      <point x="146" y="409" type="line"/>
      <point x="146" y="737" type="line"/>
      <point x="96" y="725" type="line"/>
      <point x="96" y="374" type="line"/>
      <point x="-1" y="294" type="line"/>
      <point x="-1" y="239" type="line"/>
      <point x="96" y="320" type="line"/>
    </contour>
  </outline>
</glyph>
<glyph name="Eng" format="2">
  <advance width="726"/>
  <unicode hex="014A"/>
  <outline>
    <contour>
      <point x="526" y="-219" type="curve" smooth="yes"/>
      <point x="596" y="-219"/>
      <point x="634" y="-177"/>
      <point x="634" y="-105" type="curve" smooth="yes"/>
      <point x="634" y="700" type="line"/>
      <point x="585" y="700" type="line"/>
      <point x="585" y="83" type="line"/>
      <point x="150" y="700" type="line"/>
      <point x="92" y="700" type="line"/>
      <point x="92" y="0" type="line"/>
      <point x="141" y="0" type="line"/>
      <point x="141" y="631" type="line"/>
      <point x="585" y="1" type="line"/>
      <point x="585" y="-102" type="line" smooth="yes"/>
      <point x="585" y="-151"/>
      <point x="568" y="-173"/>
      <point x="523" y="-173" type="curve" smooth="yes"/>
      <point x="510" y="-173"/>
      <point x="500" y="-171"/>
      <point x="490" y="-167" type="curve"/>
      <point x="490" y="-215" type="line"/>
      <point x="501" y="-217"/>
      <point x="512" y="-219"/>
    </contour>
  </outline>
</glyph>
<glyph name="OE" format="2">
  <advance width="1056"/>
  <unicode hex="0152"/>
  <outline>
    <contour>
      <point x="389" y="0" type="curve" smooth="yes"/>
      <point x="1010" y="0" type="line"/>
      <point x="1010" y="47" type="line"/>
      <point x="550" y="47" type="line"/>
      <point x="645" y="103"/>
      <point x="711" y="206"/>
      <point x="717" y="330" type="curve"/>
      <point x="887" y="330" type="line"/>
      <point x="887" y="377" type="line"/>
      <point x="717" y="377" type="line"/>
      <point x="709" y="498"/>
      <point x="643" y="598"/>
      <point x="550" y="653" type="curve"/>
      <point x="1006" y="653" type="line"/>
      <point x="1006" y="700" type="line"/>
      <point x="389" y="700" type="line" smooth="yes"/>
      <point x="206" y="700"/>
      <point x="60" y="546"/>
      <point x="60" y="350" type="curve" smooth="yes"/>
      <point x="60" y="154"/>
      <point x="206" y="0"/>
    </contour>
    <contour>
      <point x="389" y="48" type="curve" smooth="yes"/>
      <point x="233" y="48"/>
      <point x="112" y="180"/>
      <point x="112" y="350" type="curve" smooth="yes"/>
      <point x="112" y="520"/>
      <point x="233" y="652"/>
      <point x="389" y="652" type="curve" smooth="yes"/>
      <point x="545" y="652"/>
      <point x="666" y="520"/>
      <point x="666" y="350" type="curve" smooth="yes"/>
      <point x="666" y="180"/>
      <point x="545" y="48"/>
    </contour>
  </outline>
</glyph>
<glyph name="oe" format="2">
  <advance width="958"/>
  <unicode hex="0153"/>
  <outline>
    <contour>
      <point x="286" y="-10" type="curve" smooth="yes"/>
      <point x="378" y="-10"/>
      <point x="455" y="46"/>
      <point x="491" y="130" type="curve"/>
      <point x="528" y="46"/>
      <point x="606" y="-10"/>
      <point x="700" y="-10" type="curve" smooth="yes"/>
      <point x="765" y="-10"/>
      <point x="821" y="11"/>
      <point x="874" y="52" type="curve"/>
      <point x="844" y="89" type="line"/>
      <point x="809" y="57"/>
      <point x="755" y="36"/>
      <point x="702" y="36" type="curve" smooth="yes"/>
      <point x="599" y="36"/>
      <point x="520" y="118"/>
      <point x="516" y="231" type="curve"/>
      <point x="905" y="231" type="line"/>
      <point x="905" y="250" type="line" smooth="yes"/>
      <point x="905" y="385"/>
      <point x="810" y="489"/>
      <point x="688" y="489" type="curve" smooth="yes"/>
      <point x="602" y="489"/>
      <point x="526" y="433"/>
      <point x="491" y="350" type="curve"/>
      <point x="455" y="433"/>
      <point x="378" y="489"/>
      <point x="286" y="489" type="curve" smooth="yes"/>
      <point x="156" y="489"/>
      <point x="56" y="381"/>
      <point x="56" y="240" type="curve" smooth="yes"/>
      <point x="56" y="98"/>
      <point x="156" y="-10"/>
    </contour>
    <contour>
      <point x="286" y="36" type="curve" smooth="yes"/>
      <point x="183" y="36"/>
      <point x="106" y="123"/>
      <point x="106" y="240" type="curve" smooth="yes"/>
      <point x="106" y="356"/>
      <point x="183" y="443"/>
      <point x="286" y="443" type="curve" smooth="yes"/>
      <point x="389" y="443"/>
      <point x="466" y="356"/>
      <point x="466" y="240" type="curve" smooth="yes"/>
      <point x="466" y="123"/>
      <point x="389" y="36"/>
    </contour>
    <contour>
      <point x="518" y="272" type="line"/>
      <point x="531" y="372"/>
      <point x="602" y="443"/>
      <point x="688" y="443" type="curve" smooth="yes"/>
      <point x="776" y="443"/>
      <point x="845" y="370"/>
      <point x="854" y="272" type="curve"/>
    </contour>
  </outline>
</glyph>
<glyph name="Scedilla" format="2">
  <advance width="614"/>
  <unicode hex="015E"/>
  <outline>
    <contour>
      <point x="293" y="-233" type="curve" smooth="yes"/>
      <point x="356" y="-233"/>
      <point x="399" y="-196"/>
      <point x="399" y="-145" type="curve" smooth="yes"/>
      <point x="399" y="-98"/>
      <point x="361" y="-68"/>
      <point x="303" y="-66" type="curve"/>
      <point x="315" y="-11" type="line"/>
      <point x="460" y="-11"/>
      <point x="570" y="76"/>
      <point x="570" y="192" type="curve" smooth="yes"/>
      <point x="570" y="299"/>
      <point x="506" y="354"/>
      <point x="354" y="381" type="curve" smooth="yes"/>
      <point x="250" y="399" type="line" smooth="yes"/>
      <point x="145" y="418"/>
      <point x="104" y="452"/>
      <point x="104" y="520" type="curve" smooth="yes"/>
      <point x="104" y="603"/>
      <point x="181" y="663"/>
      <point x="286" y="663" type="curve" smooth="yes"/>
      <point x="370" y="663"/>
      <point x="458" y="632"/>
      <point x="529" y="577" type="curve"/>
      <point x="557" y="621" type="line"/>
      <point x="464" y="684"/>
      <point x="380" y="711"/>
      <point x="283" y="711" type="curve" smooth="yes"/>
      <point x="148" y="711"/>
      <point x="52" y="631"/>
      <point x="52" y="519" type="curve" smooth="yes"/>
      <point x="52" y="424"/>
      <point x="111" y="372"/>
      <point x="241" y="349" type="curve" smooth="yes"/>
      <point x="345" y="331" type="line" smooth="yes"/>
      <point x="472" y="309"/>
      <point x="518" y="272"/>
      <point x="518" y="196" type="curve" smooth="yes"/>
      <point x="518" y="106"/>
      <point x="429" y="37"/>
      <point x="312" y="37" type="curve" smooth="yes"/>
      <point x="214" y="37"/>
      <point x="148" y="67"/>
      <point x="66" y="150" type="curve"/>
      <point x="30" y="113" type="line"/>
      <point x="104" y="35"/>
      <point x="183" y="-4"/>
      <point x="282" y="-10" type="curve"/>
      <point x="260" y="-94" type="line"/>
      <point x="285" y="-94" type="line" smooth="yes"/>
      <point x="333" y="-94"/>
      <point x="361" y="-113"/>
      <point x="361" y="-147" type="curve" smooth="yes"/>
      <point x="361" y="-181"/>
      <point x="335" y="-202"/>
      <point x="292" y="-202" type="curve" smooth="yes"/>
      <point x="262" y="-202"/>
      <point x="235" y="-192"/>
      <point x="212" y="-173" type="curve"/>
      <point x="190" y="-199" type="line"/>
      <point x="216" y="-222"/>
      <point x="252" y="-233"/>
    </contour>
  </outline>
</glyph>
<glyph name="scedilla" format="2">
  <advance width="436"/>
  <unicode hex="015F"/>
  <outline>
    <contour>
      <point x="207" y="-235" type="curve" smooth="yes"/>
      <point x="270" y="-235"/>
      <point x="313" y="-198"/>
      <point x="313" y="-147" type="curve" smooth="yes"/>
      <point x="313" y="-100"/>
      <point x="275" y="-70"/>
      <point x="217" y="-68" type="curve"/>
      <point x="230" y="-10" type="line"/>
      <point x="325" y="-5"/>
      <point x="399" y="53"/>
      <point x="399" y="135" type="curve" smooth="yes"/>
      <point x="399" y="202"/>
      <point x="358" y="244"/>
      <point x="260" y="262" type="curve" smooth="yes"/>
      <point x="183" y="276" type="line" smooth="yes"/>
      <point x="115" y="288"/>
      <point x="91" y="312"/>
      <point x="91" y="355" type="curve" smooth="yes"/>
      <point x="91" y="412"/>
      <point x="137" y="443"/>
      <point x="212" y="443" type="curve" smooth="yes"/>
      <point x="261" y="443"/>
      <point x="312" y="425"/>
      <point x="362" y="389" type="curve"/>
      <point x="388" y="428" type="line"/>
      <point x="328" y="470"/>
      <point x="275" y="489"/>
      <point x="212" y="489" type="curve" smooth="yes"/>
      <point x="114" y="489"/>
      <point x="43" y="434"/>
      <point x="43" y="352" type="curve" smooth="yes"/>
      <point x="43" y="286"/>
      <point x="84" y="246"/>
      <point x="177" y="230" type="curve" smooth="yes"/>
      <point x="253" y="217" type="line" smooth="yes"/>
      <point x="322" y="204"/>
      <point x="351" y="176"/>
      <point x="351" y="134" type="curve" smooth="yes"/>
      <point x="351" y="74"/>
      <point x="293" y="36"/>
      <point x="215" y="36" type="curve" smooth="yes"/>
      <point x="162" y="36"/>
      <point x="114" y="56"/>
      <point x="60" y="100" type="curve"/>
      <point x="30" y="64" type="line"/>
      <point x="71" y="21"/>
      <point x="129" y="-5"/>
      <point x="197" y="-9" type="curve"/>
      <point x="174" y="-96" type="line"/>
      <point x="199" y="-96" type="line" smooth="yes"/>
      <point x="247" y="-96"/>
      <point x="275" y="-115"/>
      <point x="275" y="-149" type="curve" smooth="yes"/>
      <point x="275" y="-183"/>
      <point x="249" y="-204"/>
      <point x="206" y="-204" type="curve" smooth="yes"/>
      <point x="176" y="-204"/>
      <point x="149" y="-194"/>
      <point x="126" y="-175" type="curve"/>
      <point x="104" y="-201" type="line"/>
      <point x="130" y="-224"/>
      <point x="166" y="-235"/>
    </contour>
  </outline>
</glyph>
<glyph name="Tcedilla" format="2">
  <advance width="604"/>
  <unicode hex="0162"/>
  <outline>
    <contour>
      <point x="293" y="-235" type="curve" smooth="yes"/>
      <point x="356" y="-235"/>
      <point x="399" y="-198"/>
      <point x="399" y="-147" type="curve" smooth="yes"/>
      <point x="399" y="-100"/>
      <point x="361" y="-70"/>
      <point x="303" y="-68" type="curve"/>
      <point x="318" y="0" type="line"/>
      <point x="328" y="0" type="line"/>
      <point x="328" y="653" type="line"/>
      <point x="574" y="653" type="line"/>
      <point x="574" y="700" type="line"/>
      <point x="30" y="700" type="line"/>
      <point x="30" y="653" type="line"/>
      <point x="276" y="653" type="line"/>
      <point x="276" y="0" type="line"/>
      <point x="285" y="0" type="line"/>
      <point x="260" y="-96" type="line"/>
      <point x="285" y="-96" type="line" smooth="yes"/>
      <point x="333" y="-96"/>
      <point x="361" y="-115"/>
      <point x="361" y="-149" type="curve" smooth="yes"/>
      <point x="361" y="-183"/>
      <point x="335" y="-204"/>
      <point x="292" y="-204" type="curve" smooth="yes"/>
      <point x="262" y="-204"/>
      <point x="235" y="-194"/>
      <point x="212" y="-175" type="curve"/>
      <point x="190" y="-201" type="line"/>
      <point x="216" y="-224"/>
      <point x="252" y="-235"/>
    </contour>
  </outline>
</glyph>
<glyph name="tcedilla" format="2">
  <advance width="352"/>
  <unicode hex="0163"/>
  <outline>
    <contour>
      <point x="205" y="-235" type="curve" smooth="yes"/>
      <point x="268" y="-235"/>
      <point x="311" y="-198"/>
      <point x="311" y="-147" type="curve" smooth="yes"/>
      <point x="311" y="-100"/>
      <point x="273" y="-70"/>
      <point x="215" y="-68" type="curve"/>
      <point x="228" y="-10" type="line"/>
      <point x="232" y="-10"/>
      <point x="236" y="-10"/>
      <point x="241" y="-10" type="curve" smooth="yes"/>
      <point x="268" y="-10"/>
      <point x="292" y="-6"/>
      <point x="319" y="3" type="curve"/>
      <point x="319" y="50" type="line"/>
      <point x="295" y="41"/>
      <point x="279" y="36"/>
      <point x="250" y="36" type="curve" smooth="yes"/>
      <point x="198" y="36"/>
      <point x="178" y="58"/>
      <point x="178" y="113" type="curve" smooth="yes"/>
      <point x="178" y="438" type="line"/>
      <point x="319" y="438" type="line"/>
      <point x="319" y="481" type="line"/>
      <point x="178" y="481" type="line"/>
      <point x="178" y="625" type="line"/>
      <point x="128" y="612" type="line"/>
      <point x="128" y="481" type="line"/>
      <point x="27" y="481" type="line"/>
      <point x="27" y="438" type="line"/>
      <point x="128" y="438" type="line"/>
      <point x="128" y="97" type="line" smooth="yes"/>
      <point x="128" y="45"/>
      <point x="151" y="9"/>
      <point x="196" y="-4" type="curve"/>
      <point x="172" y="-96" type="line"/>
      <point x="197" y="-96" type="line" smooth="yes"/>
      <point x="245" y="-96"/>
      <point x="273" y="-115"/>
      <point x="273" y="-149" type="curve" smooth="yes"/>
      <point x="273" y="-183"/>
      <point x="247" y="-204"/>
      <point x="204" y="-204" type="curve" smooth="yes"/>
      <point x="174" y="-204"/>
      <point x="147" y="-194"/>
      <point x="124" y="-175" type="curve"/>
      <point x="102" y="-201" type="line"/>
      <point x="128" y="-224"/>
      <point x="164" y="-235"/>
    </contour>
  </outline>
</glyph>
<glyph name="Uogonek" format="2">
  <advance width="702"/>
  <unicode hex="0172"/>
  <outline>
    <contour>
      <point x="389" y="-231" type="curve" smooth="yes"/>
      <point x="415" y="-231"/>
      <point x="439" y="-224"/>
      <point x="456" y="-213" type="curve"/>
      <point x="444" y="-182" type="line"/>
      <point x="431" y="-190"/>
      <point x="412" y="-195"/>
      <point x="395" y="-195" type="curve" smooth="yes"/>
      <point x="352" y="-195"/>
      <point x="323" y="-174"/>
      <point x="323" y="-134" type="curve" smooth="yes"/>
      <point x="323" y="-97"/>
      <point x="349" y="-56"/>
      <point x="432" y="-1" type="curve"/>
      <point x="549" y="31"/>
      <point x="624" y="133"/>
      <point x="624" y="294" type="curve" smooth="yes"/>
      <point x="624" y="700" type="line"/>
      <point x="572" y="700" type="line"/>
      <point x="572" y="294" type="line" smooth="yes"/>
      <point x="572" y="130"/>
      <point x="480" y="37"/>
      <point x="351" y="37" type="curve" smooth="yes"/>
      <point x="222" y="37"/>
      <point x="130" y="130"/>
      <point x="130" y="294" type="curve" smooth="yes"/>
      <point x="130" y="700" type="line"/>
      <point x="78" y="700" type="line"/>
      <point x="78" y="294" type="line" smooth="yes"/>
      <point x="78" y="86"/>
      <point x="204" y="-20"/>
      <point x="371" y="-10" type="curve"/>
      <point x="306" y="-60"/>
      <point x="283" y="-99"/>
      <point x="283" y="-142" type="curve" smooth="yes"/>
      <point x="283" y="-193"/>
      <point x="321" y="-231"/>
    </contour>
  </outline>
</glyph>
<glyph name="dotaccent" format="2">
  <advance width="600"/>
  <unicode hex="02D9"/>
  <outline>
    <contour>
      <point x="300" y="607" type="curve" smooth="yes"/>
      <point x="325" y="607"/>
      <point x="346" y="627"/>
      <point x="346" y="654" type="curve" smooth="yes"/>
      <point x="346" y="679"/>
      <point x="325" y="700"/>
      <point x="300" y="700" type="curve" smooth="yes"/>
      <point x="275" y="700"/>
      <point x="254" y="679"/>
      <point x="254" y="654" type="curve" smooth="yes"/>
      <point x="254" y="627"/>
      <point x="275" y="607"/>
    </contour>
  </outline>
</glyph>
<glyph name="ring" format="2">
  <advance width="600"/>
  <unicode hex="02DA"/>
  <outline>
    <contour>
      <point x="300" y="567" type="curve" smooth="yes"/>
      <point x="361" y="567"/>
      <point x="408" y="615"/>
      <point x="408" y="675" type="curve" smooth="yes"/>
      <point x="408" y="735"/>
      <point x="361" y="783"/>
      <point x="300" y="783" type="curve" smooth="yes"/>
      <point x="239" y="783"/>
      <point x="192" y="735"/>
      <point x="192" y="675" type="curve" smooth="yes"/>
      <point x="192" y="615"/>
      <point x="239" y="567"/>
    </contour>
    <contour>
      <point x="300" y="601" type="curve" smooth="yes"/>
      <point x="258" y="601"/>
      <point x="227" y="633"/>
      <point x="227" y="675" type="curve" smooth="yes"/>
      <point x="227" y="717"/>
      <point x="258" y="749"/>
      <point x="300" y="749" type="curve" smooth="yes"/>
      <point x="342" y="749"/>
      <point x="373" y="717"/>
      <point x="373" y="675" type="curve" smooth="yes"/>
      <point x="373" y="633"/>
      <point x="342" y="601"/>
    </contour>
  </outline>
</glyph>
<glyph name="hungarumlaut" format="2">
  <advance width="600"/>
  <unicode hex="02DD"/>
  <outline>
    <contour>
      <point x="180" y="577" type="line"/>
      <point x="236" y="577" type="line"/>
      <point x="376" y="695" type="line"/>
      <point x="308" y="695" type="line"/>
    </contour>
    <contour>
      <point x="339" y="577" type="line"/>
      <point x="395" y="577" type="line"/>
      <point x="535" y="695" type="line"/>
      <point x="467" y="695" type="line"/>
    </contour>
  </outline>
</glyph>
<glyph name="endash" format="2">
  <advance width="546"/>
  <unicode hex="2013"/>
  <outline>
    <contour>
      <point x="64" y="258" type="line"/>
      <point x="482" y="258" type="line"/>
      <point x="482" y="302" type="line"/>
      <point x="64" y="302" type="line"/>
    </contour>
  </outline>
</glyph>
<glyph name="uni2015" format="2">
  <advance width="926"/>
  <unicode hex="2015"/>
  <outline>
    <contour>
      <point x="64" y="258" type="line"/>
      <point x="862" y="258" type="line"/>
      <point x="862" y="302" type="line"/>
      <point x="64" y="302" type="line"/>
    </contour>
  </outline>
</glyph>
<glyph name="dagger" format="2">
  <advance width="425"/>
  <unicode hex="2020"/>
  <outline>
    <contour>
      <point x="188" y="0" type="line"/>
      <point x="237" y="0" type="line"/>
      <point x="237" y="452" type="line"/>
      <point x="373" y="452" type="line"/>
      <point x="373" y="496" type="line"/>
      <point x="237" y="496" type="line"/>
      <point x="237" y="700" type="line"/>
      <point x="188" y="700" type="line"/>
      <point x="188" y="496" type="line"/>
      <point x="52" y="496" type="line"/>
      <point x="52" y="452" type="line"/>
      <point x="188" y="452" type="line"/>
    </contour>
  </outline>
</glyph>
<glyph name="bullet" format="2">
  <advance width="334"/>
  <unicode hex="2022"/>
  <outline>
    <contour>
      <point x="167" y="266" type="curve" smooth="yes"/>
      <point x="218" y="266"/>
      <point x="262" y="307"/>
      <point x="262" y="361" type="curve" smooth="yes"/>
      <point x="262" y="415"/>
      <point x="218" y="456"/>
      <point x="167" y="456" type="curve" smooth="yes"/>
      <point x="116" y="456"/>
      <point x="72" y="415"/>
      <point x="72" y="361" type="curve" smooth="yes"/>
      <point x="72" y="307"/>
      <point x="116" y="266"/>
    </contour>
  </outline>
</glyph>
<glyph name="guilsinglleft" format="2">
  <advance width="387"/>
  <unicode hex="2039"/>
  <outline>
    <contour>
      <point x="268" y="0" type="line"/>
      <point x="327" y="0" type="line"/>
      <point x="110" y="243" type="line"/>
      <point x="327" y="481" type="line"/>
      <point x="271" y="481" type="line"/>
      <point x="48" y="241" type="line"/>
    </contour>
  </outline>
</glyph>
<glyph name="fraction" format="2">
  <advance width="578"/>
  <unicode hex="2044"/>
  <outline>
    <contour>
      <point x="35" y="0" type="line"/>
      <point x="80" y="0" type="line"/>
      <point x="475" y="700" type="line"/>
      <point x="430" y="700" type="line"/>
    </contour>
  </outline>
</glyph>
<glyph name="uni2070" format="2">
  <advance width="346"/>
  <unicode hex="2070"/>
  <outline>
    <contour>
      <point x="173" y="345" type="curve" smooth="yes"/>
      <point x="258" y="345"/>
      <point x="317" y="418"/>
      <point x="317" y="525" type="curve" smooth="yes"/>
      <point x="317" y="632"/>
      <point x="258" y="705"/>
      <point x="173" y="705" type="curve" smooth="yes"/>
      <point x="88" y="705"/>
      <point x="29" y="632"/>
      <point x="29" y="525" type="curve" smooth="yes"/>
      <point x="29" y="418"/>
      <point x="88" y="345"/>
    </contour>
    <contour>
      <point x="173" y="381" type="curve" smooth="yes"/>
      <point x="111" y="381"/>
      <point x="70" y="437"/>
      <point x="70" y="525" type="curve" smooth="yes"/>
      <point x="70" y="613"/>
      <point x="111" y="669"/>
      <point x="173" y="669" type="curve" smooth="yes"/>
      <point x="235" y="669"/>
      <point x="276" y="613"/>
      <point x="276" y="525" type="curve" smooth="yes"/>
      <point x="276" y="437"/>
      <point x="235" y="381"/>
    </contour>
  </outline>
</glyph>
<glyph name="uni2075" format="2">
  <advance width="303"/>
  <unicode hex="2075"/>
  <outline>
    <contour>
      <point x="145" y="345" type="curve"/>
      <point x="223" y="345"/>
      <point x="276" y="390"/>
      <point x="276" y="459" type="curve" smooth="yes"/>
      <point x="276" y="521"/>
      <point x="225" y="564"/>
      <point x="147" y="565" type="curve" smooth="yes"/>
      <point x="122" y="565"/>
      <point x="100" y="561"/>
      <point x="79" y="553" type="curve"/>
      <point x="84" y="665" type="line"/>
      <point x="257" y="665" type="line"/>
      <point x="257" y="700" type="line"/>
      <point x="48" y="700" type="line"/>
      <point x="40" y="527" type="line"/>
      <point x="64" y="520" type="line"/>
      <point x="93" y="529"/>
      <point x="118" y="534"/>
      <point x="146" y="534" type="curve" smooth="yes"/>
      <point x="202" y="534"/>
      <point x="236" y="503"/>
      <point x="236" y="458" type="curve" smooth="yes"/>
      <point x="236" y="412"/>
      <point x="199" y="380"/>
      <point x="144" y="380" type="curve"/>
      <point x="111" y="380"/>
      <point x="80" y="390"/>
      <point x="42" y="414" type="curve"/>
      <point x="22" y="382" type="line"/>
      <point x="62" y="356"/>
      <point x="98" y="345"/>
    </contour>
  </outline>
</glyph>
<glyph name="uni2076" format="2">
  <advance width="322"/>
  <unicode hex="2076"/>
  <outline>
    <contour>
      <point x="172" y="345" type="curve" smooth="yes"/>
      <point x="244" y="345"/>
      <point x="296" y="394"/>
      <point x="296" y="460" type="curve" smooth="yes"/>
      <point x="296" y="522"/>
      <point x="247" y="566"/>
      <point x="178" y="566" type="curve" smooth="yes"/>
      <point x="135" y="566"/>
      <point x="94" y="547"/>
      <point x="69" y="518" type="curve"/>
      <point x="69" y="610"/>
      <point x="116" y="670"/>
      <point x="189" y="670" type="curve" smooth="yes"/>
      <point x="216" y="670"/>
      <point x="240" y="662"/>
      <point x="264" y="652" type="curve"/>
      <point x="277" y="688" type="line"/>
      <point x="250" y="700"/>
      <point x="225" y="705"/>
      <point x="195" y="705" type="curve" smooth="yes"/>
      <point x="95" y="705"/>
      <point x="29" y="629"/>
      <point x="29" y="513" type="curve" smooth="yes"/>
      <point x="29" y="414"/>
      <point x="88" y="345"/>
    </contour>
    <contour>
      <point x="165" y="534" type="curve" smooth="yes"/>
      <point x="219" y="534"/>
      <point x="256" y="503"/>
      <point x="256" y="459" type="curve" smooth="yes"/>
      <point x="256" y="414"/>
      <point x="222" y="380"/>
      <point x="175" y="380" type="curve" smooth="yes"/>
      <point x="120" y="380"/>
      <point x="79" y="422"/>
      <point x="71" y="486" type="curve"/>
      <point x="95" y="517"/>
      <point x="130" y="534"/>
    </contour>
  </outline>
</glyph>
<glyph name="uni2077" format="2">
  <advance width="290"/>
  <unicode hex="2077"/>
  <outline>
    <contour>
      <point x="56" y="350" type="line"/>
      <point x="100" y="350" type="line"/>
      <point x="280" y="669" type="line"/>
      <point x="280" y="700" type="line"/>
      <point x="15" y="700" type="line"/>
      <point x="15" y="665" type="line"/>
      <point x="234" y="665" type="line"/>
    </contour>
  </outline>
</glyph>
<glyph name="uni2079" format="2">
  <advance width="322"/>
  <unicode hex="2079"/>
  <outline>
    <contour>
      <point x="150" y="704" type="curve" smooth="yes"/>
      <point x="78" y="704"/>
      <point x="26" y="655"/>
      <point x="26" y="589" type="curve" smooth="yes"/>
      <point x="26" y="527"/>
      <point x="75" y="483"/>
      <point x="144" y="483" type="curve" smooth="yes"/>
      <point x="187" y="483"/>
      <point x="228" y="502"/>
      <point x="253" y="531" type="curve"/>
      <point x="253" y="439"/>
      <point x="206" y="379"/>
      <point x="133" y="379" type="curve" smooth="yes"/>
      <point x="106" y="379"/>
      <point x="82" y="387"/>
      <point x="58" y="397" type="curve"/>
      <point x="45" y="361" type="line"/>
      <point x="72" y="349"/>
      <point x="97" y="344"/>
      <point x="127" y="344" type="curve" smooth="yes"/>
      <point x="227" y="344"/>
      <point x="293" y="420"/>
      <point x="293" y="536" type="curve" smooth="yes"/>
      <point x="293" y="635"/>
      <point x="234" y="704"/>
    </contour>
    <contour>
      <point x="157" y="515" type="curve" smooth="yes"/>
      <point x="103" y="515"/>
      <point x="66" y="546"/>
      <point x="66" y="590" type="curve" smooth="yes"/>
      <point x="66" y="635"/>
      <point x="100" y="669"/>
      <point x="147" y="669" type="curve" smooth="yes"/>
      <point x="202" y="669"/>
      <point x="243" y="627"/>
      <point x="251" y="563" type="curve"/>
      <point x="227" y="532"/>
      <point x="192" y="515"/>
    </contour>
  </outline>
</glyph>
<glyph name="uni2080" format="2">
  <advance width="346"/>
  <unicode hex="2080"/>
  <outline>
    <contour>
      <point x="173" y="-5" type="curve" smooth="yes"/>
      <point x="258" y="-5"/>
      <point x="317" y="68"/>
      <point x="317" y="175" type="curve" smooth="yes"/>
      <point x="317" y="282"/>
      <point x="258" y="355"/>
      <point x="173" y="355" type="curve" smooth="yes"/>
      <point x="88" y="355"/>
      <point x="29" y="282"/>
      <point x="29" y="175" type="curve" smooth="yes"/>
      <point x="29" y="68"/>
      <point x="88" y="-5"/>
    </contour>
    <contour>
      <point x="173" y="31" type="curve" smooth="yes"/>
      <point x="111" y="31"/>
      <point x="70" y="87"/>
      <point x="70" y="175" type="curve" smooth="yes"/>
      <point x="70" y="263"/>
      <point x="111" y="319"/>
      <point x="173" y="319" type="curve" smooth="yes"/>
      <point x="235" y="319"/>
      <point x="276" y="263"/>
      <point x="276" y="175" type="curve" smooth="yes"/>
      <point x="276" y="87"/>
      <point x="235" y="31"/>
    </contour>
  </outline>
</glyph>
<glyph name="uni2087" format="2">
  <advance width="290"/>
  <unicode hex="2087"/>
  <outline>
    <contour>
      <point x="56" y="0" type="line"/>
      <point x="100" y="0" type="line"/>
      <point x="280" y="319" type="line"/>
      <point x="280" y="350" type="line"/>
      <point x="15" y="350" type="line"/>
      <point x="15" y="315" type="line"/>
      <point x="234" y="315" type="line"/>
    </contour>
  </outline>
</glyph>
<glyph name="uni2088" format="2">
  <advance width="323"/>
  <unicode hex="2088"/>
  <outline>
    <contour>
      <point x="162" y="-5" type="curve" smooth="yes"/>
      <point x="237" y="-5"/>
      <point x="293" y="37"/>
      <point x="293" y="94" type="curve" smooth="yes"/>
      <point x="293" y="136"/>
      <point x="261" y="171"/>
      <point x="214" y="182" type="curve"/>
      <point x="253" y="196"/>
      <point x="280" y="226"/>
      <point x="280" y="263" type="curve" smooth="yes"/>
      <point x="280" y="316"/>
      <point x="229" y="355"/>
      <point x="161" y="355" type="curve" smooth="yes"/>
      <point x="95" y="355"/>
      <point x="44" y="317"/>
      <point x="44" y="263" type="curve" smooth="yes"/>
      <point x="44" y="226"/>
      <point x="69" y="196"/>
      <point x="108" y="182" type="curve"/>
      <point x="61" y="170"/>
      <point x="30" y="136"/>
      <point x="30" y="94" type="curve" smooth="yes"/>
      <point x="30" y="37"/>
      <point x="86" y="-5"/>
    </contour>
    <contour>
      <point x="162" y="199" type="curve" smooth="yes"/>
      <point x="116" y="199"/>
      <point x="83" y="227"/>
      <point x="83" y="261" type="curve" smooth="yes"/>
      <point x="83" y="297"/>
      <point x="117" y="322"/>
      <point x="162" y="322" type="curve" smooth="yes"/>
      <point x="205" y="322"/>
      <point x="240" y="297"/>
      <point x="240" y="261" type="curve" smooth="yes"/>
      <point x="240" y="227"/>
      <point x="205" y="199"/>
    </contour>
    <contour>
      <point x="162" y="28" type="curve" smooth="yes"/>
      <point x="110" y="28"/>
      <point x="70" y="58"/>
      <point x="70" y="96" type="curve" smooth="yes"/>
      <point x="70" y="137"/>
      <point x="109" y="166"/>
      <point x="162" y="166" type="curve" smooth="yes"/>
      <point x="214" y="166"/>
      <point x="253" y="137"/>
      <point x="253" y="96" type="curve" smooth="yes"/>
      <point x="253" y="58"/>
      <point x="214" y="28"/>
    </contour>
  </outline>
</glyph>
<glyph name="Euro" format="2">
  <advance width="724"/>
  <unicode hex="20AC"/>
  <outline>
    <contour>
      <point x="437" y="-11" type="curve" smooth="yes"/>
      <point x="530" y="-11"/>
      <point x="606" y="34"/>
      <point x="663" y="113" type="curve"/>
      <point x="624" y="143" type="line"/>
      <point x="577" y="75"/>
      <point x="515" y="35"/>
      <point x="434" y="35" type="curve" smooth="yes"/>
      <point x="317" y="35"/>
      <point x="225" y="120"/>
      <point x="198" y="262" type="curve"/>
      <point x="417" y="262" type="line"/>
      <point x="431" y="306" type="line"/>
      <point x="192" y="306" type="line"/>
      <point x="191" y="320"/>
      <point x="190" y="335"/>
      <point x="190" y="350" type="curve" smooth="yes"/>
      <point x="190" y="366"/>
      <point x="191" y="382"/>
      <point x="192" y="397" type="curve"/>
      <point x="461" y="397" type="line"/>
      <point x="476" y="441" type="line"/>
      <point x="198" y="441" type="line"/>
      <point x="226" y="582"/>
      <point x="318" y="665"/>
      <point x="434" y="665" type="curve" smooth="yes"/>
      <point x="515" y="665"/>
      <point x="577" y="625"/>
      <point x="624" y="557" type="curve"/>
      <point x="663" y="587" type="line"/>
      <point x="606" y="666"/>
      <point x="530" y="711"/>
      <point x="437" y="711" type="curve" smooth="yes"/>
      <point x="291" y="711"/>
      <point x="178" y="603"/>
      <point x="147" y="441" type="curve"/>
      <point x="45" y="441" type="line"/>
      <point x="45" y="397" type="line"/>
      <point x="141" y="397" type="line"/>
      <point x="140" y="382"/>
      <point x="139" y="366"/>
      <point x="139" y="350" type="curve" smooth="yes"/>
      <point x="139" y="335"/>
      <point x="140" y="320"/>
      <point x="141" y="306" type="curve"/>
      <point x="45" y="306" type="line"/>
      <point x="45" y="262" type="line"/>
      <point x="147" y="262" type="line"/>
      <point x="177" y="98"/>
      <point x="290" y="-11"/>
    </contour>
  </outline>
</glyph>
<glyph name="trademark" format="2">
  <advance width="667"/>
  <unicode hex="2122"/>
  <guideline x="452" y="424" angle="90.0" identifier="wsFHmXMse8"/>
  <outline>
    <contour>
      <point x="321" y="424" type="line"/>
      <point x="353" y="424" type="line"/>
      <point x="353" y="655" type="line"/>
      <point x="453" y="443" type="line"/>
      <point x="551" y="655" type="line"/>
      <point x="551" y="424" type="line"/>
      <point x="583" y="424" type="line"/>
      <point x="583" y="700" type="line"/>
      <point x="541" y="700" type="line"/>
      <point x="453" y="507" type="line"/>
      <point x="363" y="700" type="line"/>
      <point x="321" y="700" type="line"/>
    </contour>
    <contour>
      <point x="145" y="424" type="line"/>
      <point x="178" y="424" type="line"/>
      <point x="178" y="670" type="line"/>
      <point x="273" y="670" type="line"/>
      <point x="273" y="700" type="line"/>
      <point x="50" y="700" type="line"/>
      <point x="50" y="670" type="line"/>
      <point x="145" y="670" type="line"/>
    </contour>
  </outline>
</glyph>
<glyph name="uni2191" format="2">
  <advance width="560"/>
  <unicode hex="2191"/>
  <outline>
    <contour>
      <point x="257" y="0" type="line"/>
      <point x="303" y="0" type="line"/>
      <point x="303" y="651" type="line"/>
      <point x="476" y="418" type="line"/>
      <point x="510" y="442" type="line"/>
      <point x="281" y="750" type="line"/>
      <point x="50" y="442" type="line"/>
      <point x="86" y="416" type="line"/>
      <point x="257" y="644" type="line"/>
    </contour>
  </outline>
</glyph>
<glyph name="notequal" format="2">
  <advance width="600"/>
  <unicode hex="2260"/>
  <outline>
    <contour>
      <point x="119" y="134" type="line"/>
      <point x="161" y="134" type="line"/>
      <point x="250" y="259" type="line"/>
      <point x="490" y="259" type="line"/>
      <point x="490" y="304" type="line"/>
      <point x="282" y="304" type="line"/>
      <point x="359" y="411" type="line"/>
      <point x="490" y="411" type="line"/>
      <point x="490" y="456" type="line"/>
      <point x="391" y="456" type="line"/>
      <point x="480" y="581" type="line"/>
      <point x="438" y="581" type="line"/>
      <point x="349" y="456" type="line"/>
      <point x="109" y="456" type="line"/>
      <point x="109" y="411" type="line"/>
      <point x="317" y="411" type="line"/>
      <point x="240" y="304" type="line"/>
      <point x="109" y="304" type="line"/>
      <point x="109" y="259" type="line"/>
      <point x="208" y="259" type="line"/>
    </contour>
  </outline>
</glyph>
<glyph name="aogonek.school" format="2">
  <advance width="566"/>
  <outline>
    <contour>
      <point x="444" y="-231" type="curve" smooth="yes"/>
      <point x="470" y="-231"/>
      <point x="494" y="-224"/>
      <point x="511" y="-213" type="curve"/>
      <point x="499" y="-182" type="line"/>
      <point x="486" y="-190"/>
      <point x="467" y="-195"/>
      <point x="450" y="-195" type="curve" smooth="yes"/>
      <point x="407" y="-195"/>
      <point x="378" y="-174"/>
      <point x="378" y="-134" type="curve" smooth="yes"/>
      <point x="378" y="-97"/>
      <point x="404" y="-56"/>
      <point x="488" y="0" type="curve"/>
      <point x="488" y="481" type="line"/>
      <point x="438" y="481" type="line"/>
      <point x="438" y="418" type="line"/>
      <point x="397" y="464"/>
      <point x="342" y="487"/>
      <point x="283" y="487" type="curve" smooth="yes"/>
      <point x="152" y="487"/>
      <point x="56" y="376"/>
      <point x="56" y="239" type="curve" smooth="yes"/>
      <point x="56" y="101"/>
      <point x="153" y="-8"/>
      <point x="281" y="-8" type="curve" smooth="yes"/>
      <point x="343" y="-8"/>
      <point x="398" y="15"/>
      <point x="438" y="63" type="curve"/>
      <point x="438" y="0" type="line"/>
      <point x="439" y="0" type="line"/>
      <point x="364" y="-55"/>
      <point x="338" y="-96"/>
      <point x="338" y="-142" type="curve" smooth="yes"/>
      <point x="338" y="-193"/>
      <point x="376" y="-231"/>
    </contour>
    <contour>
      <point x="106" y="240" type="curve" smooth="yes"/>
      <point x="106" y="356"/>
      <point x="184" y="441"/>
      <point x="289" y="441" type="curve" smooth="yes"/>
      <point x="352" y="441"/>
      <point x="406" y="412"/>
      <point x="438" y="369" type="curve"/>
      <point x="438" y="109" type="line"/>
      <point x="406" y="65"/>
      <point x="353" y="38"/>
      <point x="289" y="38" type="curve" smooth="yes"/>
      <point x="186" y="38"/>
      <point x="106" y="123"/>
    </contour>
  </outline>
</glyph>
